<svg width="999" height="919" viewBox="0 0 999 919" fill="none" xmlns="http://www.w3.org/2000/svg">
<path fill-rule="evenodd" clip-rule="evenodd" d="M245.986 239.659H108.223L499.927 917.802L568.809 798.549L245.986 239.659ZM637.882 678.966L891.631 239.659H384.133L637.882 678.966Z" fill="#FAFAFA"/>
<path d="M49.28 123.536C40.576 123.536 32.8533 121.573 26.112 117.648C19.3707 113.637 14.08 108.176 10.24 101.264C6.4 94.2667 4.48 86.2453 4.48 77.2C4.48 68.1547 6.4 60.176 10.24 53.264C14.08 46.2667 19.328 40.8053 25.984 36.88C32.7253 32.8693 40.448 30.864 49.152 30.864C55.296 30.864 61.0133 31.9733 66.304 34.192C71.5947 36.3253 76.2027 39.3547 80.128 43.28C84.1387 47.12 87.2107 51.5573 89.344 56.592L73.088 62.608C71.6373 59.4507 69.7173 56.72 67.328 54.416C64.9387 52.0267 62.208 50.192 59.136 48.912C56.064 47.5467 52.736 46.864 49.152 46.864C43.9467 46.864 39.296 48.1867 35.2 50.832C31.1893 53.392 28.032 56.9333 25.728 61.456C23.5093 65.9787 22.4 71.2267 22.4 77.2C22.4 83.1733 23.552 88.464 25.856 93.072C28.16 97.5947 31.36 101.179 35.456 103.824C39.552 106.384 44.2453 107.664 49.536 107.664C53.2053 107.664 56.5333 106.981 59.52 105.616C62.592 104.165 65.28 102.203 67.584 99.728C69.9733 97.2533 71.8933 94.3947 73.344 91.152L89.6 97.04C87.4667 102.245 84.3947 106.853 80.384 110.864C76.4587 114.875 71.8507 117.989 66.56 120.208C61.2693 122.427 55.5093 123.536 49.28 123.536ZM156.238 123.536C147.193 123.536 139.171 121.573 132.174 117.648C125.262 113.637 119.843 108.176 115.918 101.264C111.993 94.2667 110.03 86.288 110.03 77.328C110.03 68.1973 111.993 60.176 115.918 53.264C119.843 46.2667 125.219 40.8053 132.046 36.88C138.958 32.9547 146.894 30.992 155.854 30.992C164.899 30.992 172.835 32.9973 179.662 37.008C186.574 40.9333 191.993 46.3947 195.918 53.392C199.843 60.304 201.806 68.2827 201.806 77.328C201.806 86.288 199.843 94.2667 195.918 101.264C192.078 108.176 186.702 113.637 179.79 117.648C172.963 121.573 165.113 123.536 156.238 123.536ZM156.238 107.536C161.699 107.536 166.478 106.256 170.574 103.696C174.755 101.051 177.998 97.4667 180.302 92.944C182.691 88.4213 183.886 83.216 183.886 77.328C183.886 71.3547 182.691 66.1067 180.302 61.584C177.913 57.0613 174.627 53.52 170.446 50.96C166.265 48.3147 161.401 46.992 155.854 46.992C150.478 46.992 145.657 48.3147 141.39 50.96C137.209 53.52 133.923 57.0613 131.534 61.584C129.145 66.1067 127.95 71.3547 127.95 77.328C127.95 83.216 129.145 88.4213 131.534 92.944C133.923 97.4667 137.251 101.051 141.518 103.696C145.785 106.256 150.691 107.536 156.238 107.536ZM236.508 122V32.4H255.58L281.692 71.056L307.804 32.4H326.748V122H309.34V59.792L281.692 100.496L254.044 59.92V122H236.508ZM394.13 123.792C386.706 123.792 380.263 122.341 374.802 119.44C369.341 116.539 365.117 112.485 362.13 107.28C359.229 101.989 357.778 95.76 357.778 88.592V32.4H375.314V88.592C375.314 92.432 376.082 95.8027 377.618 98.704C379.239 101.52 381.458 103.696 384.274 105.232C387.175 106.768 390.546 107.536 394.386 107.536C398.226 107.536 401.554 106.768 404.37 105.232C407.271 103.696 409.49 101.52 411.026 98.704C412.647 95.8027 413.458 92.432 413.458 88.592V32.4H430.994V88.592C430.994 95.76 429.458 101.989 426.386 107.28C423.399 112.485 419.133 116.539 413.586 119.44C408.125 122.341 401.639 123.792 394.13 123.792ZM461.983 122V32.4H480.287L524.063 92.56V32.4H541.471V122H524.063L479.519 60.688V122H461.983ZM573.783 122V32.4H591.319V122H573.783ZM623.583 122V32.4H652.255C661.386 32.4 669.45 34.32 676.447 38.16C683.53 42 689.034 47.2907 692.959 54.032C696.97 60.688 698.975 68.4107 698.975 77.2C698.975 85.904 696.97 93.6267 692.959 100.368C689.034 107.109 683.53 112.4 676.447 116.24C669.45 120.08 661.386 122 652.255 122H623.583ZM641.119 105.616H652.255C656.351 105.616 660.148 104.891 663.647 103.44C667.146 101.989 670.175 99.984 672.735 97.424C675.38 94.864 677.428 91.8773 678.879 88.464C680.33 84.9653 681.055 81.2107 681.055 77.2C681.055 73.1893 680.33 69.4773 678.879 66.064C677.428 62.5653 675.38 59.536 672.735 56.976C670.175 54.416 667.146 52.4107 663.647 50.96C660.148 49.5093 656.351 48.784 652.255 48.784H641.119V105.616ZM788.088 122L753.784 32.4H771.32L806.648 122H788.088ZM717.304 122L752.632 32.4H770.168L735.864 122H717.304ZM733.944 102.288V86.8H790.136V102.288H733.944ZM830.183 122V32.4H858.855C867.986 32.4 876.05 34.32 883.047 38.16C890.13 42 895.634 47.2907 899.559 54.032C903.57 60.688 905.575 68.4107 905.575 77.2C905.575 85.904 903.57 93.6267 899.559 100.368C895.634 107.109 890.13 112.4 883.047 116.24C876.05 120.08 867.986 122 858.855 122H830.183ZM847.719 105.616H858.855C862.951 105.616 866.748 104.891 870.247 103.44C873.746 101.989 876.775 99.984 879.335 97.424C881.98 94.864 884.028 91.8773 885.479 88.464C886.93 84.9653 887.655 81.2107 887.655 77.2C887.655 73.1893 886.93 69.4773 885.479 66.064C884.028 62.5653 881.98 59.536 879.335 56.976C876.775 54.416 873.746 52.4107 870.247 50.96C866.748 49.5093 862.951 48.784 858.855 48.784H847.719V105.616ZM932.608 122V32.4H989.312V48.4H950.144V68.752H983.936V84.368H950.144V106H989.824V122H932.608Z" fill="#FAFAFA"/>
</svg>
