<svg width="1068" height="1068" viewBox="0 0 1068 1068" fill="none" xmlns="http://www.w3.org/2000/svg">
<circle cx="534" cy="534" r="534" fill="#FAFAFA"/>
<circle cx="534" cy="534" r="534" stroke="#FAFAFA"/>
<circle cx="534" cy="534" r="494" fill="#FAFAFA" stroke="#0C0C0C" stroke-width="18"/>
<path d="M1000.17 533.962C1000.17 791.419 791.459 1000.13 534.002 1000.13C276.545 1000.13 67.8352 791.419 67.8352 533.962C67.8352 276.505 276.545 67.7949 534.002 67.7949C791.459 67.7949 1000.17 276.505 1000.17 533.962Z" fill="#FAFAFA"/>
<path d="M1000.17 533.962C1000.17 791.419 791.459 1000.13 534.002 1000.13C276.545 1000.13 67.8352 791.419 67.8352 533.962C67.8352 276.505 276.545 67.7949 534.002 67.7949C791.459 67.7949 1000.17 276.505 1000.17 533.962Z" stroke="#FAFAFA"/>
<path d="M933.578 557.962C933.888 552.94 935.296 548.553 937.801 544.804C940.356 541.057 943.696 538.199 947.821 536.229C951.996 534.263 956.693 533.441 961.912 533.764C967.132 534.087 971.667 535.479 975.519 537.941C979.419 540.407 982.383 543.63 984.411 547.61C986.485 551.643 987.366 556.171 987.056 561.193C986.837 564.739 985.993 567.998 984.524 570.972C983.104 573.949 981.192 576.499 978.787 578.624C976.428 580.802 973.758 582.416 970.777 583.468L967.885 573.873C969.759 573.148 971.403 572.138 972.818 570.841C974.282 569.548 975.438 568.038 976.286 566.311C977.183 564.587 977.696 562.691 977.824 560.623C978.009 557.619 977.412 554.888 976.032 552.431C974.698 550.025 972.767 548.077 970.239 546.586C967.709 545.145 964.72 544.317 961.273 544.104C957.826 543.891 954.733 544.367 951.991 545.532C949.3 546.7 947.117 548.419 945.445 550.688C943.822 552.96 942.916 555.623 942.727 558.676C942.596 560.793 942.871 562.738 943.553 564.51C944.28 566.334 945.317 567.955 946.662 569.373C948.005 570.84 949.586 572.05 951.406 573.003L947.428 582.173C944.501 580.756 941.951 578.819 939.78 576.362C937.606 573.954 935.973 571.184 934.882 568.052C933.79 564.92 933.355 561.556 933.578 557.962Z" fill="#0C0C0C"/>
<path d="M927.295 608.874C928.275 603.737 930.258 599.395 933.246 595.846C936.272 592.355 939.96 589.87 944.311 588.389C948.709 586.918 953.453 586.668 958.541 587.638C963.726 588.627 968.069 590.611 971.569 593.588C975.118 596.575 977.637 600.22 979.126 604.522C980.607 608.872 980.862 613.592 979.891 618.68C978.912 623.817 976.913 628.106 973.896 631.549C970.918 635.049 967.23 637.534 962.831 639.006C958.481 640.486 953.737 640.736 948.6 639.757C943.512 638.786 939.194 636.807 935.645 633.82C932.136 630.891 929.617 627.246 928.088 622.887C926.598 618.585 926.334 613.914 927.295 608.874ZM936.381 610.607C935.79 613.708 935.999 616.561 937.009 619.164C938.059 621.825 939.743 624.055 942.062 625.853C944.371 627.7 947.198 628.942 950.541 629.58C953.934 630.227 957.043 630.117 959.87 629.25C962.698 628.383 965.065 626.901 966.971 624.804C968.926 622.716 970.204 620.097 970.805 616.947C971.388 613.894 971.159 611.013 970.119 608.303C969.118 605.651 967.462 603.402 965.153 601.555C962.843 599.709 959.992 598.462 956.6 597.815C953.257 597.177 950.171 597.292 947.344 598.158C944.517 599.025 942.121 600.527 940.157 602.664C938.241 604.809 936.982 607.457 936.381 610.607Z" fill="#0C0C0C"/>
<path d="M922.985 636.626L972.008 653.358L968.447 663.793L942.421 670.861L958.695 692.366L955.158 702.731L906.134 686L909.385 676.476L943.421 688.092L926.313 665.364L953.677 657.813L919.71 646.221L922.985 636.626Z" fill="#0C0C0C"/>
<path d="M893.104 710.704C895.023 706.864 897.438 703.907 900.349 701.833C903.261 699.758 906.449 698.621 909.913 698.422C913.399 698.288 916.995 699.148 920.702 701L949.762 715.521L945.23 724.59L916.17 710.069C914.184 709.077 912.243 708.603 910.345 708.648C908.47 708.758 906.772 709.343 905.249 710.403C903.705 711.506 902.437 713.051 901.445 715.037C900.453 717.023 899.99 718.942 900.056 720.796C900.101 722.693 900.653 724.403 901.712 725.925C902.794 727.513 904.327 728.803 906.313 729.796L935.373 744.317L930.842 753.385L901.782 738.864C898.075 737.012 895.25 734.608 893.308 731.652C891.388 728.762 890.394 725.508 890.327 721.89C890.238 718.316 891.164 714.587 893.104 710.704Z" fill="#0C0C0C"/>
<path d="M881.294 736.355L924.375 765.117L918.499 773.918L875.521 775.654L904.447 794.966L898.859 803.336L855.778 774.574L861.366 766.204L905.145 764.468L875.665 744.787L881.294 736.355Z" fill="#0C0C0C"/>
<path d="M850.31 780.83L890.59 813.399L884.216 821.283L843.936 788.713L850.31 780.83Z" fill="#0C0C0C"/>
<path d="M837.822 796.826L875.109 832.783L863.603 844.715C859.939 848.514 855.904 851.1 851.498 852.471C847.058 853.877 842.647 854.045 838.266 852.973C833.887 851.971 829.868 849.706 826.211 846.179C822.588 842.686 820.179 838.752 818.983 834.378C817.753 830.039 817.76 825.625 819.005 821.137C820.215 816.684 822.652 812.558 826.316 808.758L837.822 796.826ZM837.603 810.699L833.134 815.333C831.49 817.037 830.268 818.909 829.468 820.947C828.668 822.985 828.287 825.05 828.325 827.143C828.328 829.271 828.749 831.322 829.588 833.296C830.462 835.303 831.733 837.112 833.402 838.721C835.071 840.331 836.907 841.519 838.91 842.285C840.948 843.085 843.03 843.449 845.157 843.375C847.25 843.337 849.3 842.881 851.308 842.007C853.316 841.133 855.141 839.844 856.785 838.14L861.254 833.505L837.603 810.699Z" fill="#0C0C0C"/>
<path d="M775.685 854.528L823.777 882.163L815.917 888.566L767.366 861.305L775.685 854.528ZM807.413 828.682L824.294 881.743L816.433 888.146L799.093 835.459L807.413 828.682ZM807.152 843.594L812.807 850.536L787.62 871.053L781.965 864.111L807.152 843.594Z" fill="#0C0C0C"/>
<path d="M766.895 861.431L794.541 905.237L780.523 914.084C776.06 916.901 771.525 918.451 766.919 918.732C762.271 919.04 757.948 918.152 753.949 916.067C749.934 914.051 746.571 910.894 743.859 906.597C741.173 902.341 739.771 897.947 739.651 893.414C739.49 888.907 740.549 884.622 742.827 880.559C745.063 876.523 748.413 873.096 752.877 870.278L766.895 861.431ZM763.377 874.852L757.932 878.289C755.93 879.552 754.297 881.079 753.034 882.867C751.771 884.656 750.909 886.571 750.447 888.613C749.944 890.681 749.864 892.773 750.208 894.889C750.579 897.047 751.382 899.107 752.62 901.067C753.857 903.028 755.357 904.619 757.12 905.84C758.909 907.103 760.845 907.952 762.928 908.388C764.969 908.849 767.069 908.895 769.227 908.525C771.385 908.155 773.466 907.337 775.468 906.074L780.913 902.638L763.377 874.852Z" fill="#0C0C0C"/>
<path d="M724.963 887.309L747.6 933.901L718.114 948.227L714.071 939.907L734.439 930.011L729.297 919.428L711.725 927.965L707.78 919.845L725.351 911.308L719.886 900.059L699.253 910.084L695.21 901.764L724.963 887.309Z" fill="#0C0C0C"/>
<path d="M666.524 912.788L682.885 961.936L673.266 965.139L656.905 915.99L666.524 912.788Z" fill="#0C0C0C"/>
<path d="M631.238 923.316L623.978 978.226L613.388 980.711L621.584 925.581L631.238 923.316ZM632.319 923.063L664.251 968.778L653.66 971.263L622.665 925.328L632.319 923.063Z" fill="#0C0C0C"/>
<path d="M576.591 916.58L583.499 991L575.835 991.711L568.928 917.291L576.591 916.58Z" fill="#0C0C0C"/>
<path d="M513.008 933.703C518.033 933.974 522.43 935.348 526.199 937.825C529.965 940.35 532.849 943.668 534.85 947.778C536.848 951.938 537.706 956.628 537.424 961.85C537.142 967.072 535.784 971.618 533.352 975.488C530.916 979.407 527.716 982.396 523.751 984.455C519.735 986.559 515.214 987.476 510.189 987.204C506.642 987.013 503.376 986.194 500.392 984.748C497.404 983.351 494.838 981.458 492.695 979.07C490.499 976.728 488.865 974.07 487.79 971.097L497.362 968.132C498.101 970 499.124 971.636 500.432 973.041C501.736 974.495 503.256 975.639 504.989 976.474C506.72 977.358 508.62 977.856 510.689 977.968C513.694 978.13 516.42 977.512 518.867 976.113C521.262 974.76 523.195 972.814 524.666 970.275C526.088 967.734 526.893 964.739 527.079 961.291C527.265 957.842 526.766 954.752 525.579 952.02C524.39 949.337 522.655 947.168 520.373 945.513C518.088 943.908 515.419 943.022 512.365 942.857C510.247 942.743 508.304 943.033 506.537 943.728C504.719 944.469 503.106 945.518 501.698 946.875C500.242 948.229 499.044 949.819 498.105 951.646L488.905 947.74C490.299 944.801 492.216 942.237 494.657 940.047C497.048 937.854 499.805 936.2 502.929 935.084C506.052 933.969 509.412 933.508 513.008 933.703Z" fill="#0C0C0C"/>
<path d="M461.629 927.725C466.773 928.666 471.13 930.616 474.702 933.576C478.216 936.575 480.729 940.244 482.243 944.583C483.748 948.971 484.034 953.712 483.103 958.808C482.153 964.001 480.203 968.358 477.252 971.881C474.293 975.452 470.667 977.999 466.377 979.522C462.038 981.035 457.321 981.326 452.225 980.395C447.081 979.454 442.776 977.489 439.311 974.498C435.788 971.547 433.275 967.878 431.77 963.491C430.256 959.152 429.969 954.41 430.91 949.266C431.841 944.17 433.787 939.837 436.747 936.266C439.65 932.734 443.275 930.187 447.622 928.625C451.913 927.102 456.582 926.803 461.629 927.725ZM459.965 936.824C456.859 936.257 454.009 936.488 451.413 937.518C448.76 938.587 446.543 940.288 444.763 942.621C442.934 944.945 441.713 947.781 441.101 951.129C440.48 954.526 440.614 957.635 441.502 960.455C442.391 963.276 443.891 965.631 446.003 967.522C448.106 969.461 450.734 970.719 453.889 971.296C456.946 971.855 459.825 971.604 462.527 970.543C465.171 969.522 467.408 967.849 469.237 965.526C471.066 963.202 472.291 960.342 472.912 956.945C473.524 953.596 473.386 950.512 472.497 947.691C471.609 944.871 470.089 942.487 467.937 940.539C465.777 938.639 463.12 937.401 459.965 936.824Z" fill="#0C0C0C"/>
<path d="M434.367 923.739L418.006 972.887L407.544 969.404L400.28 943.432L378.898 959.868L368.506 956.409L384.868 907.26L394.416 910.439L383.057 944.562L405.655 927.283L413.412 954.589L424.748 920.537L434.367 923.739Z" fill="#0C0C0C"/>
<path d="M360.02 894.413C363.873 896.303 366.848 898.696 368.944 901.592C371.04 904.489 372.201 907.668 372.426 911.13C372.585 914.615 371.752 918.217 369.928 921.938L355.623 951.105L346.52 946.641L360.825 917.474C361.803 915.481 362.262 913.536 362.204 911.639C362.079 909.764 361.481 908.07 360.411 906.556C359.296 905.02 357.742 903.763 355.749 902.786C353.755 901.808 351.833 901.359 349.98 901.44C348.083 901.499 346.377 902.063 344.863 903.134C343.283 904.227 342.004 905.77 341.027 907.763L326.721 936.93L317.619 932.466L331.924 903.299C333.749 899.579 336.132 896.736 339.074 894.772C341.949 892.831 345.196 891.813 348.813 891.719C352.387 891.603 356.122 892.501 360.02 894.413Z" fill="#0C0C0C"/>
<path d="M334.338 882.849L305.893 926.14L297.049 920.329L294.997 877.365L275.898 906.431L267.488 900.905L295.933 857.614L304.344 863.141L306.401 906.905L325.866 877.282L334.338 882.849Z" fill="#0C0C0C"/>
<path d="M289.634 852.213L257.359 892.729L249.429 886.412L281.704 845.896L289.634 852.213Z" fill="#0C0C0C"/>
<path d="M273.607 839.927L237.923 877.475L225.907 866.056C222.081 862.419 219.466 858.403 218.063 854.007C216.625 849.577 216.425 845.168 217.465 840.779C218.435 836.393 220.671 832.358 224.171 828.675C227.638 825.027 231.554 822.59 235.919 821.362C240.249 820.1 244.663 820.075 249.16 821.287C253.622 822.464 257.766 824.871 261.592 828.508L273.607 839.927ZM259.734 839.809L255.067 835.374C253.35 833.742 251.47 832.534 249.426 831.749C247.382 830.963 245.314 830.597 243.222 830.65C241.094 830.669 239.046 831.105 237.079 831.958C235.077 832.846 233.278 834.131 231.681 835.812C230.083 837.492 228.909 839.337 228.158 841.345C227.372 843.389 227.024 845.474 227.113 847.6C227.166 849.693 227.637 851.739 228.525 853.741C229.414 855.742 230.716 857.558 232.433 859.19L237.099 863.625L259.734 839.809Z" fill="#0C0C0C"/>
<path d="M215.497 778.325L188.213 826.617L181.753 818.804L208.66 770.056L215.497 778.325ZM241.573 809.864L188.637 827.131L182.177 819.317L234.736 801.594L241.573 809.864ZM226.661 809.711L219.76 815.417L199.059 790.38L205.96 784.675L226.661 809.711Z" fill="#0C0C0C"/>
<path d="M208.772 769.902L165.274 798.029L156.273 784.11C153.407 779.677 151.808 775.159 151.475 770.557C151.116 765.913 151.957 761.58 153.997 757.558C155.97 753.522 159.089 750.124 163.356 747.365C167.582 744.633 171.961 743.182 176.492 743.013C180.997 742.802 185.294 743.813 189.381 746.046C193.442 748.238 196.906 751.55 199.772 755.983L208.772 769.902ZM195.314 766.532L191.818 761.126C190.532 759.137 188.988 757.522 187.185 756.278C185.383 755.035 183.458 754.194 181.412 753.755C179.339 753.274 177.246 753.218 175.133 753.585C172.979 753.979 170.929 754.806 168.982 756.065C167.035 757.324 165.46 758.841 164.259 760.617C163.016 762.419 162.188 764.365 161.775 766.452C161.336 768.499 161.314 770.599 161.708 772.753C162.102 774.907 162.942 776.978 164.227 778.967L167.723 784.373L195.314 766.532Z" fill="#0C0C0C"/>
<path d="M182.349 728.075L135.926 751.057L121.382 721.678L129.672 717.574L139.718 737.867L150.263 732.647L141.595 715.139L149.686 711.134L158.353 728.641L169.561 723.093L159.383 702.534L167.673 698.43L182.349 728.075Z" fill="#0C0C0C"/>
<path d="M156.504 670.276L107.481 687.008L104.206 677.413L153.23 660.682L156.504 670.276Z" fill="#0C0C0C"/>
<path d="M145.714 635.372L90.7247 628.739L88.1194 618.177L143.339 625.745L145.714 635.372ZM145.98 636.45L100.632 668.901L98.0265 658.34L143.605 626.822L145.98 636.45Z" fill="#0C0C0C"/>
<path d="M151.799 580.304L77.4343 587.784L76.6641 580.126L151.029 572.646L151.799 580.304Z" fill="#0C0C0C"/>
<path d="M134.038 517.869C133.824 522.897 132.501 527.309 130.068 531.107C127.586 534.902 124.302 537.824 120.215 539.872C116.08 541.919 111.399 542.831 106.175 542.609C100.95 542.387 96.3887 541.082 92.4905 538.695C88.543 536.305 85.5173 533.14 83.4133 529.199C81.2621 525.207 80.2933 520.697 80.5068 515.669C80.6576 512.121 81.4386 508.846 82.8499 505.844C84.2119 502.84 86.0747 500.253 88.4383 498.082C90.7547 495.86 93.3931 494.194 96.3535 493.086L99.4296 502.623C97.5703 503.383 95.9459 504.425 94.5565 505.749C93.1178 507.07 91.9911 508.602 91.1764 510.345C90.3124 512.086 89.8364 513.992 89.7485 516.062C89.6208 519.069 90.2707 521.787 91.6981 524.218C93.0784 526.597 95.0464 528.508 97.6022 529.95C100.16 531.342 103.164 532.112 106.614 532.258C110.065 532.405 113.149 531.869 115.867 530.652C118.536 529.432 120.684 527.671 122.313 525.37C123.892 523.067 124.746 520.388 124.876 517.332C124.966 515.212 124.654 513.273 123.938 511.515C123.176 509.705 122.108 508.104 120.735 506.713C119.364 505.272 117.76 504.093 115.923 503.175L119.723 493.93C122.677 495.29 125.263 497.178 127.481 499.592C129.702 501.958 131.388 504.696 132.539 507.807C133.691 510.917 134.191 514.271 134.038 517.869Z" fill="#0C0C0C"/>
<path d="M139.579 465.291C138.678 470.442 136.761 474.814 133.829 478.408C130.856 481.945 127.206 484.487 122.879 486.034C118.503 487.572 113.764 487.895 108.662 487.002C103.462 486.093 99.0894 484.176 95.5442 481.252C91.9504 478.32 89.3758 474.714 87.8205 470.435C86.2736 466.108 85.9465 461.393 86.839 456.291C87.7401 451.14 89.6726 446.82 92.6367 443.332C95.5606 439.787 99.2105 437.245 103.586 435.706C107.914 434.16 112.653 433.837 117.804 434.738C122.906 435.63 127.255 437.543 130.848 440.475C134.402 443.351 136.977 446.956 138.572 451.292C140.127 455.571 140.463 460.237 139.579 465.291ZM130.467 463.697C131.011 460.587 130.759 457.738 129.709 455.15C128.619 452.506 126.901 450.302 124.555 448.539C122.217 446.728 119.372 445.529 116.019 444.943C112.617 444.348 109.509 444.505 106.696 445.416C103.882 446.326 101.538 447.844 99.664 449.97C97.741 452.088 96.5032 454.726 95.9507 457.885C95.4151 460.946 95.6881 463.823 96.7695 466.517C97.8108 469.153 99.5003 471.377 101.838 473.188C104.175 474.999 107.045 476.202 110.447 476.797C113.8 477.384 116.883 477.222 119.697 476.312C122.51 475.402 124.883 473.863 126.814 471.697C128.697 469.522 129.915 466.856 130.467 463.697Z" fill="#0C0C0C"/>
<path d="M143.006 439.108L93.6759 423.304L97.0399 412.804L122.928 405.246L106.252 384.051L109.593 373.622L158.923 389.426L155.853 399.01L121.603 388.037L139.137 410.439L111.92 418.504L146.099 429.454L143.006 439.108Z" fill="#0C0C0C"/>
<path d="M171.285 364.729C169.438 368.603 167.078 371.604 164.205 373.733C161.333 375.861 158.167 377.057 154.707 377.32C151.224 377.518 147.613 376.726 143.872 374.942L114.548 360.963L118.91 351.812L148.234 365.791C150.238 366.746 152.189 367.184 154.085 367.104C155.958 366.959 157.645 366.342 159.147 365.255C160.671 364.123 161.91 362.555 162.865 360.551C163.821 358.547 164.248 356.619 164.147 354.768C164.067 352.871 163.483 351.172 162.396 349.67C161.285 348.102 159.728 346.84 157.724 345.885L128.399 331.906L132.762 322.755L162.086 336.734C165.827 338.517 168.696 340.868 170.693 343.788C172.666 346.641 173.72 349.876 173.854 353.493C174.009 357.064 173.153 360.81 171.285 364.729Z" fill="#0C0C0C"/>
<path d="M182.394 338.987L138.792 311.02L144.506 302.113L187.445 299.588L158.17 280.81L163.603 272.339L207.205 300.307L201.771 308.778L158.032 311.316L187.867 330.454L182.394 338.987Z" fill="#0C0C0C"/>
<path d="M213.616 292.377L172.865 260.398L179.124 252.422L219.874 284.401L213.616 292.377Z" fill="#0C0C0C"/>
<path d="M225.464 276.529L187.658 241.118L198.99 229.02C202.598 225.168 206.595 222.524 210.981 221.089C215.4 219.618 219.808 219.387 224.204 220.395C228.597 221.333 232.648 223.539 236.357 227.013C240.03 230.453 242.496 234.351 243.755 238.707C245.048 243.028 245.105 247.441 243.926 251.947C242.781 256.417 240.404 260.579 236.796 264.431L225.464 276.529ZM225.481 262.655L229.883 257.956C231.501 256.228 232.696 254.339 233.467 252.29C234.237 250.24 234.588 248.169 234.52 246.077C234.485 243.949 234.034 241.905 233.168 239.944C232.265 237.949 230.967 236.159 229.275 234.574C227.582 232.989 225.73 231.828 223.716 231.091C221.666 230.32 219.579 229.987 217.453 230.092C215.361 230.16 213.318 230.646 211.323 231.549C209.328 232.452 207.521 233.767 205.903 235.496L201.502 240.194L225.481 262.655Z" fill="#0C0C0C"/>
<path d="M285.139 219.021L236.552 192.265L244.295 185.72L293.334 212.094L285.139 219.021ZM253.888 245.439L236.044 192.695L243.786 186.15L262.082 238.512L253.888 245.439ZM253.877 230.526L248.097 223.688L272.906 202.715L278.686 209.553L253.877 230.526Z" fill="#0C0C0C"/>
<path d="M294.601 211.183L266.155 167.892L280.008 158.79C284.42 155.891 288.926 154.259 293.526 153.893C298.167 153.499 302.506 154.308 306.542 156.319C310.593 158.262 314.014 161.357 316.804 165.603C319.567 169.809 321.05 174.177 321.253 178.707C321.496 183.21 320.517 187.514 318.314 191.618C316.152 195.694 312.865 199.182 308.454 202.081L294.601 211.183ZM297.872 197.7L303.252 194.165C305.231 192.864 306.836 191.308 308.066 189.497C309.295 187.685 310.122 185.755 310.547 183.705C311.012 181.628 311.053 179.535 310.671 177.425C310.261 175.274 309.419 173.23 308.146 171.292C306.873 169.354 305.344 167.791 303.559 166.603C301.748 165.373 299.796 164.559 297.706 164.162C295.656 163.738 293.556 163.731 291.405 164.141C289.254 164.551 287.189 165.406 285.21 166.706L279.829 170.241L297.872 197.7Z" fill="#0C0C0C"/>
<path d="M334.558 185.22L311.061 139.056L340.276 124.185L344.472 132.429L324.292 142.7L329.629 153.186L347.039 144.325L351.135 152.37L333.724 161.232L339.397 172.377L359.841 161.972L364.037 170.215L334.558 185.22Z" fill="#0C0C0C"/>
<path d="M394.119 157.755L377.019 108.858L386.589 105.512L403.689 154.408L394.119 157.755Z" fill="#0C0C0C"/>
<path d="M428.319 146.788L434.534 91.7498L445.075 89.0643L437.928 144.34L428.319 146.788ZM427.243 147.062L394.448 101.962L404.989 99.2764L436.852 144.614L427.243 147.062Z" fill="#0C0C0C"/>
<path d="M484.457 152.15L476.405 77.8453L484.057 77.0162L492.108 151.321L484.457 152.15Z" fill="#0C0C0C"/>
<path d="M545.642 133.838C540.613 133.663 536.191 132.374 532.374 129.971C528.56 127.518 525.613 124.256 523.533 120.186C521.455 116.066 520.506 111.393 520.688 106.166C520.87 100.94 522.139 96.3688 524.497 92.4524C526.856 88.4866 529.998 85.4365 533.922 83.3022C537.898 81.1202 542.4 80.1167 547.429 80.2914C550.979 80.4148 554.26 81.1705 557.272 82.5586C560.286 83.8974 562.888 85.7402 565.077 88.087C567.317 90.3862 569.003 93.0116 570.134 95.9634L560.621 99.1129C559.846 97.2595 558.792 95.6433 557.458 94.2641C556.125 92.8356 554.584 91.7208 552.835 90.9196C551.087 90.069 549.178 89.6078 547.108 89.5358C544.1 89.4313 541.386 90.1022 538.967 91.5483C536.598 92.9469 534.703 94.9296 533.281 97.4965C531.908 100.065 531.162 103.075 531.042 106.526C530.922 109.977 531.481 113.057 532.72 115.766C533.96 118.425 535.737 120.56 538.051 122.171C540.366 123.732 543.052 124.566 546.109 124.672C548.229 124.746 550.165 124.418 551.918 123.69C553.722 122.913 555.315 121.833 556.696 120.449C558.126 119.068 559.293 117.455 560.196 115.61L569.47 119.338C568.133 122.303 566.266 124.904 563.868 127.141C561.519 129.379 558.794 131.086 555.693 132.262C552.592 133.437 549.241 133.963 545.642 133.838Z" fill="#0C0C0C"/>
<path d="M596.541 138.519C591.38 137.677 586.986 135.811 583.358 132.92C579.788 129.988 577.204 126.368 575.608 122.058C574.019 117.7 573.642 112.965 574.476 107.853C575.326 102.643 577.192 98.2488 580.075 94.6703C582.966 91.043 586.542 88.4272 590.802 86.8228C595.111 85.2263 599.822 84.8451 604.935 85.6789C610.096 86.5208 614.437 88.4036 617.959 91.3273C621.538 94.2103 624.121 97.8308 625.71 102.189C627.306 106.498 627.684 111.233 626.842 116.394C626.008 121.507 624.145 125.876 621.254 129.504C618.42 133.09 614.844 135.706 610.527 137.351C606.267 138.956 601.605 139.345 596.541 138.519ZM598.03 129.39C601.146 129.898 603.992 129.612 606.567 128.533C609.199 127.412 611.383 125.669 613.119 123.303C614.903 120.945 616.069 118.086 616.617 114.726C617.173 111.318 616.98 108.213 616.037 105.41C615.095 102.607 613.55 100.28 611.402 98.4304C609.263 96.5319 606.61 95.3245 603.446 94.8083C600.378 94.308 597.504 94.614 594.823 95.7263C592.199 96.7978 589.995 98.5127 588.211 100.871C586.427 103.229 585.257 106.112 584.701 109.521C584.153 112.88 584.35 115.961 585.292 118.764C586.235 121.567 587.8 123.922 589.988 125.829C592.185 127.686 594.865 128.873 598.03 129.39Z" fill="#0C0C0C"/>
<path d="M625.501 142.136L640.932 92.6881L651.458 95.9727L659.211 121.803L680.279 104.967L690.734 108.229L675.303 157.678L665.696 154.68L676.409 120.348L654.141 138.05L645.871 110.896L635.179 145.156L625.501 142.136Z" fill="#0C0C0C"/>
<path d="M700.313 169.89C696.425 168.072 693.407 165.735 691.257 162.878C689.108 160.021 687.888 156.864 687.599 153.406C687.375 149.925 688.141 146.308 689.896 142.554L703.657 113.126L712.84 117.421L699.08 146.848C698.139 148.859 697.716 150.812 697.81 152.708C697.969 154.58 698.598 156.263 699.697 157.757C700.84 159.272 702.417 160.499 704.428 161.44C706.439 162.38 708.37 162.793 710.221 162.678C712.117 162.584 713.811 161.988 715.305 160.889C716.865 159.767 718.115 158.2 719.055 156.189L732.816 126.762L742 131.056L728.239 160.484C726.484 164.237 724.154 167.124 721.249 169.142C718.41 171.137 715.183 172.214 711.568 172.375C707.998 172.557 704.246 171.729 700.313 169.89Z" fill="#0C0C0C"/>
<path d="M726.374 180.917L754.021 137.112L762.969 142.76L765.809 185.679L784.371 156.267L792.882 161.638L765.236 205.444L756.725 200.072L753.865 156.353L734.947 186.328L726.374 180.917Z" fill="#0C0C0C"/>
<path d="M771.287 210.346L802.819 169.248L810.862 175.419L779.331 216.517L771.287 210.346Z" fill="#0C0C0C"/>
<path d="M787.373 222.006L822.369 183.816L834.59 195.015C838.482 198.581 841.169 202.549 842.652 206.919C844.171 211.322 844.45 215.727 843.49 220.134C842.6 224.537 840.438 228.612 837.005 232.358C833.606 236.068 829.734 238.576 825.392 239.883C821.086 241.223 816.673 241.329 812.155 240.199C807.672 239.103 803.485 236.771 799.594 233.205L787.373 222.006ZM801.246 221.872L805.993 226.222C807.739 227.821 809.641 228.995 811.698 229.744C813.756 230.492 815.831 230.82 817.922 230.729C820.049 230.671 822.089 230.198 824.04 229.31C826.025 228.385 827.801 227.068 829.367 225.359C830.934 223.649 832.074 221.784 832.789 219.762C833.538 217.705 833.848 215.614 833.72 213.489C833.629 211.398 833.121 209.36 832.196 207.375C831.272 205.39 829.937 203.598 828.191 201.998L823.444 197.649L801.246 221.872Z" fill="#0C0C0C"/>
<path d="M847.439 283.184L873.84 234.404L880.441 242.098L854.425 291.328L847.439 283.184ZM820.793 252.126L873.406 233.898L880.008 241.593L827.78 260.269L820.793 252.126ZM835.706 252.007L842.502 246.176L863.655 270.832L856.859 276.662L835.706 252.007Z" fill="#0C0C0C"/>
<path d="M855.282 292.605L898.364 263.843L907.567 277.629C910.498 282.02 912.164 286.513 912.564 291.11C912.991 295.749 912.214 300.093 910.232 304.145C908.32 308.21 905.25 311.653 901.024 314.474C896.839 317.268 892.482 318.783 887.953 319.019C883.452 319.295 879.141 318.347 875.021 316.174C870.929 314.042 867.417 310.781 864.486 306.391L855.282 292.605ZM868.789 295.778L872.364 301.132C873.679 303.101 875.246 304.694 877.067 305.911C878.888 307.127 880.824 307.94 882.877 308.349C884.957 308.8 887.05 308.826 889.157 308.427C891.305 308.002 893.343 307.145 895.272 305.858C897.2 304.57 898.752 303.03 899.928 301.237C901.144 299.416 901.943 297.459 902.325 295.366C902.734 293.313 902.726 291.213 902.3 289.065C901.875 286.917 901.005 284.858 899.69 282.889L896.115 277.534L868.789 295.778Z" fill="#0C0C0C"/>
<path d="M881.686 332.776L927.675 308.938L942.761 338.042L934.549 342.299L924.128 322.195L913.682 327.61L922.672 344.954L914.657 349.109L905.667 331.764L894.564 337.52L905.121 357.886L896.908 362.143L881.686 332.776Z" fill="#0C0C0C"/>
<path d="M909.313 391.718L958.079 374.251L961.497 383.795L912.731 401.262L909.313 391.718Z" fill="#0C0C0C"/>
<path d="M920.591 426.208L975.675 432.005L978.44 442.526L923.112 435.798L920.591 426.208ZM920.309 425.135L965.159 391.998L967.924 402.519L922.83 434.725L920.309 425.135Z" fill="#0C0C0C"/>
<path d="M915.223 480.007L989.43 471.099L990.347 478.74L916.14 487.648L915.223 480.007Z" fill="#0C0C0C"/>
<path fill-rule="evenodd" clip-rule="evenodd" d="M391.199 399H314L533.5 779L572.099 712.176L391.199 399ZM610.806 645.167L753 399H468.612L610.806 645.167Z" fill="#0C0C0C"/>
</svg>
