<svg width="935" height="935" viewBox="0 0 935 935" fill="none" xmlns="http://www.w3.org/2000/svg">
<path d="M866.578 490.962C866.888 485.94 868.296 481.553 870.801 477.804C873.356 474.057 876.696 471.199 880.821 469.229C884.996 467.263 889.693 466.441 894.912 466.764C900.132 467.087 904.667 468.479 908.519 470.941C912.419 473.407 915.383 476.63 917.411 480.61C919.485 484.643 920.366 489.171 920.056 494.193C919.837 497.739 918.993 500.998 917.524 503.972C916.104 506.949 914.192 509.499 911.787 511.624C909.428 513.802 906.758 515.416 903.777 516.468L900.885 506.873C902.759 506.148 904.403 505.138 905.818 503.841C907.282 502.548 908.438 501.038 909.286 499.311C910.183 497.587 910.696 495.691 910.824 493.623C911.009 490.619 910.412 487.888 909.032 485.431C907.698 483.025 905.767 481.077 903.239 479.586C900.709 478.145 897.72 477.317 894.273 477.104C890.826 476.891 887.733 477.367 884.991 478.532C882.3 479.7 880.117 481.419 878.445 483.688C876.822 485.96 875.916 488.623 875.727 491.676C875.596 493.793 875.871 495.738 876.553 497.51C877.28 499.334 878.317 500.955 879.662 502.373C881.005 503.84 882.586 505.05 884.406 506.003L880.428 515.173C877.501 513.756 874.951 511.819 872.78 509.362C870.606 506.954 868.973 504.184 867.882 501.052C866.79 497.92 866.355 494.556 866.578 490.962Z" fill="#0C0C0C"/>
<path d="M860.295 541.874C861.275 536.737 863.258 532.395 866.246 528.846C869.272 525.355 872.96 522.87 877.311 521.389C881.709 519.918 886.453 519.668 891.541 520.638C896.726 521.627 901.069 523.611 904.569 526.588C908.118 529.575 910.637 533.22 912.126 537.522C913.607 541.872 913.862 546.592 912.891 551.68C911.912 556.817 909.913 561.106 906.896 564.549C903.918 568.049 900.23 570.534 895.831 572.006C891.481 573.486 886.737 573.736 881.6 572.757C876.512 571.786 872.194 569.807 868.645 566.82C865.136 563.891 862.617 560.246 861.088 555.887C859.598 551.585 859.334 546.914 860.295 541.874ZM869.381 543.607C868.79 546.708 868.999 549.561 870.009 552.164C871.059 554.825 872.743 557.055 875.062 558.853C877.371 560.7 880.198 561.942 883.541 562.58C886.934 563.227 890.043 563.117 892.87 562.25C895.698 561.383 898.065 559.901 899.971 557.804C901.926 555.716 903.204 553.097 903.805 549.947C904.388 546.894 904.159 544.013 903.119 541.303C902.118 538.651 900.462 536.402 898.153 534.555C895.843 532.709 892.992 531.462 889.6 530.815C886.257 530.177 883.171 530.292 880.344 531.158C877.517 532.025 875.121 533.527 873.157 535.664C871.241 537.809 869.982 540.457 869.381 543.607Z" fill="#0C0C0C"/>
<path d="M855.985 569.626L905.008 586.358L901.447 596.793L875.421 603.861L891.695 625.366L888.158 635.731L839.134 619L842.385 609.476L876.421 621.092L859.313 598.364L886.677 590.813L852.71 579.221L855.985 569.626Z" fill="#0C0C0C"/>
<path d="M826.104 643.704C828.023 639.864 830.438 636.907 833.349 634.833C836.261 632.758 839.449 631.621 842.913 631.422C846.399 631.288 849.995 632.148 853.702 634L882.762 648.521L878.23 657.59L849.17 643.069C847.184 642.077 845.243 641.603 843.345 641.648C841.47 641.758 839.772 642.343 838.249 643.403C836.705 644.506 835.437 646.051 834.445 648.037C833.453 650.023 832.99 651.942 833.056 653.796C833.101 655.693 833.653 657.403 834.712 658.925C835.794 660.513 837.327 661.803 839.313 662.796L868.373 677.317L863.842 686.385L834.782 671.864C831.075 670.012 828.25 667.608 826.308 664.652C824.388 661.762 823.394 658.508 823.327 654.89C823.238 651.316 824.164 647.587 826.104 643.704Z" fill="#0C0C0C"/>
<path d="M814.294 669.355L857.375 698.117L851.499 706.918L808.521 708.654L837.447 727.966L831.859 736.336L788.778 707.574L794.366 699.204L838.145 697.468L808.665 677.787L814.294 669.355Z" fill="#0C0C0C"/>
<path d="M783.31 713.83L823.59 746.399L817.216 754.283L776.936 721.713L783.31 713.83Z" fill="#0C0C0C"/>
<path d="M770.822 729.826L808.109 765.783L796.603 777.715C792.939 781.514 788.904 784.1 784.498 785.471C780.058 786.877 775.647 787.045 771.266 785.973C766.887 784.971 762.868 782.706 759.211 779.179C755.588 775.686 753.179 771.752 751.983 767.378C750.753 763.039 750.76 758.625 752.005 754.137C753.215 749.684 755.652 745.558 759.316 741.758L770.822 729.826ZM770.603 743.699L766.134 748.333C764.49 750.037 763.268 751.909 762.468 753.947C761.668 755.985 761.287 758.05 761.325 760.143C761.328 762.271 761.749 764.322 762.588 766.296C763.462 768.303 764.733 770.112 766.402 771.721C768.071 773.331 769.907 774.519 771.91 775.285C773.948 776.085 776.03 776.449 778.157 776.375C780.25 776.337 782.3 775.881 784.308 775.007C786.316 774.133 788.141 772.844 789.785 771.14L794.254 766.505L770.603 743.699Z" fill="#0C0C0C"/>
<path d="M708.685 787.528L756.777 815.163L748.917 821.566L700.366 794.305L708.685 787.528ZM740.413 761.682L757.294 814.743L749.433 821.146L732.093 768.459L740.413 761.682ZM740.152 776.594L745.807 783.536L720.62 804.053L714.965 797.111L740.152 776.594Z" fill="#0C0C0C"/>
<path d="M699.895 794.431L727.541 838.237L713.523 847.084C709.06 849.901 704.525 851.45 699.919 851.732C695.271 852.04 690.948 851.152 686.949 849.067C682.934 847.051 679.571 843.894 676.859 839.597C674.173 835.341 672.771 830.947 672.651 826.414C672.49 821.907 673.549 817.622 675.827 813.559C678.063 809.522 681.413 806.096 685.877 803.278L699.895 794.431ZM696.377 807.852L690.932 811.288C688.93 812.552 687.297 814.079 686.034 815.867C684.771 817.656 683.909 819.571 683.447 821.613C682.944 823.68 682.864 825.773 683.208 827.889C683.579 830.047 684.382 832.107 685.62 834.067C686.857 836.028 688.357 837.619 690.12 838.84C691.909 840.103 693.845 840.952 695.928 841.388C697.969 841.849 700.069 841.895 702.227 841.525C704.385 841.154 706.466 840.337 708.468 839.073L713.913 835.637L696.377 807.852Z" fill="#0C0C0C"/>
<path d="M657.963 820.309L680.6 866.901L651.114 881.227L647.071 872.907L667.439 863.011L662.297 852.428L644.725 860.965L640.78 852.845L658.351 844.308L652.886 833.059L632.253 843.084L628.21 834.764L657.963 820.309Z" fill="#0C0C0C"/>
<path d="M599.524 845.788L615.885 894.936L606.266 898.139L589.905 848.99L599.524 845.788Z" fill="#0C0C0C"/>
<path d="M564.238 856.316L556.978 911.226L546.388 913.711L554.584 858.581L564.238 856.316ZM565.319 856.063L597.251 901.778L586.66 904.263L555.665 858.328L565.319 856.063Z" fill="#0C0C0C"/>
<path d="M509.591 849.58L516.499 924L508.835 924.711L501.928 850.291L509.591 849.58Z" fill="#0C0C0C"/>
<path d="M446.008 866.703C451.033 866.974 455.43 868.348 459.199 870.825C462.965 873.35 465.849 876.668 467.85 880.778C469.848 884.938 470.706 889.628 470.424 894.85C470.142 900.072 468.784 904.618 466.352 908.488C463.916 912.407 460.716 915.396 456.751 917.455C452.735 919.559 448.214 920.476 443.189 920.204C439.642 920.013 436.376 919.194 433.392 917.748C430.404 916.351 427.838 914.458 425.695 912.07C423.499 909.728 421.865 907.07 420.79 904.097L430.362 901.132C431.101 903 432.124 904.636 433.432 906.041C434.736 907.495 436.256 908.639 437.989 909.474C439.72 910.358 441.62 910.856 443.689 910.968C446.694 911.13 449.42 910.512 451.867 909.113C454.262 907.76 456.195 905.814 457.666 903.275C459.088 900.734 459.893 897.739 460.079 894.291C460.265 890.842 459.766 887.752 458.579 885.02C457.39 882.337 455.655 880.168 453.373 878.513C451.088 876.908 448.419 876.022 445.365 875.857C443.247 875.743 441.304 876.033 439.537 876.728C437.719 877.469 436.106 878.518 434.698 879.875C433.242 881.229 432.044 882.819 431.105 884.646L421.905 880.74C423.299 877.801 425.216 875.237 427.657 873.047C430.048 870.854 432.805 869.2 435.929 868.084C439.052 866.969 442.412 866.508 446.008 866.703Z" fill="#0C0C0C"/>
<path d="M394.629 860.725C399.773 861.666 404.13 863.616 407.702 866.576C411.216 869.575 413.729 873.245 415.243 877.584C416.748 881.971 417.034 886.713 416.103 891.808C415.153 897.001 413.203 901.358 410.252 904.881C407.293 908.452 403.667 910.999 399.377 912.522C395.038 914.036 390.321 914.327 385.225 913.395C380.081 912.455 375.776 910.489 372.311 907.498C368.788 904.547 366.275 900.878 364.77 896.491C363.256 892.152 362.969 887.41 363.91 882.266C364.841 877.171 366.787 872.837 369.747 869.266C372.65 865.734 376.275 863.187 380.622 861.625C384.913 860.103 389.582 859.803 394.629 860.725ZM392.965 869.825C389.859 869.257 387.009 869.488 384.413 870.518C381.76 871.588 379.543 873.289 377.763 875.621C375.934 877.945 374.713 880.781 374.101 884.129C373.48 887.526 373.614 890.635 374.502 893.455C375.391 896.276 376.891 898.631 379.003 900.522C381.106 902.461 383.734 903.719 386.889 904.296C389.946 904.855 392.825 904.604 395.527 903.543C398.171 902.522 400.408 900.85 402.237 898.526C404.066 896.202 405.291 893.342 405.912 889.945C406.524 886.596 406.386 883.512 405.497 880.692C404.609 877.871 403.089 875.487 400.937 873.539C398.777 871.639 396.12 870.401 392.965 869.825Z" fill="#0C0C0C"/>
<path d="M367.367 856.739L351.006 905.887L340.544 902.404L333.28 876.432L311.898 892.868L301.506 889.409L317.868 840.261L327.416 843.439L316.057 877.562L338.655 860.284L346.412 887.589L357.748 853.537L367.367 856.739Z" fill="#0C0C0C"/>
<path d="M293.02 827.413C296.873 829.303 299.848 831.696 301.944 834.592C304.04 837.489 305.201 840.668 305.426 844.13C305.585 847.615 304.752 851.217 302.928 854.938L288.623 884.105L279.52 879.641L293.825 850.474C294.803 848.481 295.262 846.536 295.204 844.639C295.079 842.764 294.481 841.07 293.411 839.556C292.296 838.02 290.742 836.763 288.749 835.786C286.755 834.808 284.833 834.359 282.98 834.44C281.083 834.499 279.377 835.063 277.863 836.134C276.283 837.227 275.004 838.77 274.027 840.763L259.721 869.93L250.619 865.466L264.924 836.299C266.749 832.579 269.132 829.736 272.074 827.772C274.949 825.831 278.196 824.813 281.813 824.719C285.387 824.603 289.122 825.501 293.02 827.413Z" fill="#0C0C0C"/>
<path d="M267.338 815.849L238.893 859.14L230.049 853.329L227.997 810.365L208.898 839.431L200.488 833.905L228.933 790.614L237.344 796.141L239.401 839.905L258.866 810.282L267.338 815.849Z" fill="#0C0C0C"/>
<path d="M222.634 785.213L190.359 825.729L182.429 819.412L214.704 778.896L222.634 785.213Z" fill="#0C0C0C"/>
<path d="M206.607 772.927L170.923 810.475L158.907 799.056C155.081 795.419 152.466 791.403 151.063 787.007C149.625 782.577 149.425 778.168 150.465 773.779C151.435 769.393 153.671 765.358 157.171 761.675C160.638 758.027 164.554 755.59 168.919 754.362C173.249 753.1 177.663 753.075 182.16 754.287C186.622 755.464 190.766 757.871 194.592 761.508L206.607 772.927ZM192.734 772.809L188.067 768.374C186.35 766.742 184.47 765.534 182.426 764.749C180.382 763.963 178.314 763.597 176.222 763.65C174.094 763.669 172.046 764.105 170.079 764.958C168.077 765.846 166.278 767.131 164.681 768.812C163.083 770.492 161.909 772.337 161.158 774.345C160.372 776.389 160.024 778.474 160.113 780.6C160.166 782.693 160.637 784.739 161.525 786.741C162.414 788.742 163.716 790.558 165.433 792.19L170.099 796.625L192.734 772.809Z" fill="#0C0C0C"/>
<path d="M148.497 711.325L121.213 759.617L114.753 751.804L141.66 703.056L148.497 711.325ZM174.573 742.864L121.637 760.131L115.177 752.317L167.736 734.594L174.573 742.864ZM159.661 742.711L152.76 748.417L132.059 723.38L138.96 717.675L159.661 742.711Z" fill="#0C0C0C"/>
<path d="M141.772 702.902L98.2741 731.029L89.2735 717.11C86.4072 712.677 84.8079 708.159 84.4755 703.557C84.1163 698.913 84.957 694.58 86.9975 690.558C88.9698 686.522 92.0894 683.124 96.3564 680.365C100.582 677.633 104.961 676.182 109.492 676.013C113.997 675.802 118.294 676.813 122.381 679.046C126.442 681.238 129.906 684.55 132.772 688.983L141.772 702.902ZM128.314 699.532L124.818 694.126C123.532 692.137 121.988 690.522 120.185 689.278C118.383 688.035 116.458 687.194 114.412 686.755C112.339 686.274 110.246 686.218 108.133 686.585C105.979 686.979 103.929 687.806 101.982 689.065C100.035 690.324 98.4604 691.841 97.2587 693.617C96.0155 695.419 95.1878 697.365 94.7754 699.452C94.3362 701.499 94.3136 703.599 94.7077 705.753C95.1017 707.907 95.9416 709.978 97.2275 711.967L100.723 717.373L128.314 699.532Z" fill="#0C0C0C"/>
<path d="M115.349 661.075L68.9263 684.057L54.3818 654.678L62.6716 650.574L72.7181 670.867L83.2626 665.647L74.5951 648.139L82.6859 644.134L91.3534 661.641L102.561 656.093L92.3833 635.534L100.673 631.43L115.349 661.075Z" fill="#0C0C0C"/>
<path d="M89.5042 603.276L40.4806 620.008L37.2061 610.413L86.2297 593.682L89.5042 603.276Z" fill="#0C0C0C"/>
<path d="M78.7137 568.372L23.7247 561.739L21.1194 551.177L76.3388 558.745L78.7137 568.372ZM78.9795 569.45L33.6318 601.901L31.0265 591.34L76.6047 559.822L78.9795 569.45Z" fill="#0C0C0C"/>
<path d="M84.7991 513.304L10.4343 520.784L9.6641 513.126L84.0289 505.646L84.7991 513.304Z" fill="#0C0C0C"/>
<path d="M67.0377 450.869C66.8242 455.897 65.501 460.309 63.0684 464.107C60.5864 467.902 57.3021 470.824 53.2155 472.872C49.0796 474.919 44.3993 475.831 39.1747 475.609C33.9501 475.387 29.3887 474.082 25.4905 471.695C21.543 469.305 18.5173 466.14 16.4133 462.199C14.2621 458.207 13.2933 453.697 13.5068 448.669C13.6576 445.121 14.4386 441.846 15.8499 438.844C17.2119 435.84 19.0747 433.253 21.4383 431.082C23.7547 428.86 26.3931 427.194 29.3535 426.086L32.4296 435.623C30.5703 436.383 28.9459 437.425 27.5565 438.749C26.1178 440.07 24.9911 441.602 24.1764 443.345C23.3124 445.086 22.8364 446.992 22.7485 449.062C22.6208 452.069 23.2707 454.787 24.6981 457.218C26.0784 459.597 28.0464 461.508 30.6022 462.95C33.1601 464.342 36.1641 465.112 39.6143 465.258C43.0646 465.405 46.1487 464.869 48.8669 463.652C51.5357 462.432 53.6844 460.671 55.3128 458.37C56.892 456.067 57.7464 453.388 57.8762 450.332C57.9663 448.212 57.6536 446.273 56.9383 444.515C56.1757 442.705 55.108 441.104 53.7352 439.713C52.3644 438.272 50.7604 437.093 48.923 436.175L52.7227 426.93C55.677 428.29 58.2632 430.178 60.4814 432.592C62.7017 434.958 64.3877 437.696 65.5394 440.807C66.6911 443.917 67.1905 447.271 67.0377 450.869Z" fill="#0C0C0C"/>
<path d="M72.579 398.291C71.678 403.442 69.7612 407.814 66.8288 411.408C63.8563 414.945 60.2064 417.487 55.8791 419.034C51.5033 420.572 46.7641 420.895 41.6616 420.002C36.4618 419.093 32.0894 417.176 28.5442 414.252C24.9504 411.32 22.3758 407.714 20.8205 403.435C19.2736 399.108 18.9465 394.393 19.839 389.291C20.7401 384.14 22.6726 379.82 25.6367 376.332C28.5606 372.787 32.2105 370.245 36.5864 368.706C40.9136 367.16 45.6528 366.837 50.8039 367.738C55.9064 368.63 60.2546 370.543 63.8484 373.475C67.4021 376.351 69.9767 379.956 71.5721 384.292C73.1275 388.571 73.4631 393.237 72.579 398.291ZM63.4674 396.697C64.0114 393.587 63.7585 390.738 62.7087 388.15C61.6188 385.506 59.9008 383.302 57.5547 381.539C55.2172 379.728 52.3719 378.529 49.0188 377.943C45.6171 377.348 42.5095 377.505 39.6959 378.416C36.8823 379.326 34.5384 380.844 32.664 382.97C30.741 385.088 29.5032 387.726 28.9507 390.885C28.4151 393.946 28.6881 396.823 29.7695 399.517C30.8108 402.153 32.5003 404.377 34.8378 406.188C37.1754 407.999 40.045 409.202 43.4467 409.797C46.7998 410.384 49.8831 410.222 52.6967 409.312C55.5102 408.402 57.8828 406.863 59.8143 404.697C61.6971 402.522 62.9149 399.856 63.4674 396.697Z" fill="#0C0C0C"/>
<path d="M76.0061 372.108L26.6759 356.304L30.0399 345.804L55.9282 338.246L39.2515 317.051L42.593 306.622L91.9232 322.426L88.8526 332.01L54.6034 321.037L72.1367 343.439L44.9204 351.504L79.0992 362.454L76.0061 372.108Z" fill="#0C0C0C"/>
<path d="M104.285 297.729C102.438 301.603 100.078 304.604 97.2055 306.733C94.3327 308.861 91.1666 310.057 87.7071 310.32C84.2244 310.518 80.6126 309.726 76.8719 307.942L47.5475 293.963L51.9101 284.812L81.2345 298.791C83.2384 299.746 85.1885 300.184 87.0847 300.104C88.9576 299.959 90.6452 299.342 92.1473 298.255C93.6706 297.123 94.91 295.555 95.8653 293.551C96.8206 291.547 97.2477 289.619 97.1467 287.768C97.0669 285.871 96.4833 284.172 95.3959 282.67C94.2851 281.102 92.7278 279.84 90.7238 278.885L61.3994 264.906L65.762 255.755L95.0864 269.734C98.8271 271.517 101.696 273.868 103.693 276.788C105.666 279.641 106.72 282.876 106.854 286.493C107.009 290.064 106.153 293.81 104.285 297.729Z" fill="#0C0C0C"/>
<path d="M115.394 271.987L71.7925 244.02L77.5058 235.113L120.445 232.588L91.1698 213.81L96.6035 205.339L140.205 233.307L134.771 241.778L91.0316 244.316L120.867 263.454L115.394 271.987Z" fill="#0C0C0C"/>
<path d="M146.616 225.377L105.865 193.398L112.124 185.422L152.874 217.401L146.616 225.377Z" fill="#0C0C0C"/>
<path d="M158.464 209.529L120.658 174.118L131.99 162.02C135.598 158.168 139.595 155.524 143.981 154.089C148.4 152.618 152.808 152.387 157.204 153.395C161.597 154.333 165.648 156.539 169.357 160.013C173.03 163.453 175.496 167.351 176.755 171.707C178.048 176.028 178.105 180.441 176.926 184.947C175.781 189.417 173.404 193.579 169.796 197.431L158.464 209.529ZM158.481 195.655L162.883 190.956C164.501 189.228 165.696 187.339 166.467 185.289C167.237 183.24 167.588 181.169 167.52 179.077C167.485 176.949 167.034 174.905 166.168 172.944C165.265 170.949 163.967 169.159 162.275 167.574C160.582 165.989 158.73 164.828 156.716 164.091C154.666 163.32 152.579 162.987 150.453 163.092C148.361 163.16 146.318 163.646 144.323 164.549C142.328 165.452 140.521 166.767 138.903 168.496L134.502 173.194L158.481 195.655Z" fill="#0C0C0C"/>
<path d="M218.139 152.021L169.552 125.265L177.295 118.72L226.334 145.094L218.139 152.021ZM186.888 178.439L169.044 125.695L176.786 119.15L195.082 171.512L186.888 178.439ZM186.877 163.526L181.097 156.688L205.906 135.715L211.686 142.553L186.877 163.526Z" fill="#0C0C0C"/>
<path d="M227.601 144.183L199.155 100.892L213.008 91.7899C217.42 88.8912 221.926 87.2588 226.526 86.8927C231.167 86.4995 235.506 87.3084 239.542 89.3193C243.593 91.2619 247.014 94.3566 249.804 98.6032C252.567 102.809 254.05 107.177 254.253 111.707C254.496 116.21 253.517 120.514 251.314 124.618C249.152 128.694 245.865 132.182 241.454 135.081L227.601 144.183ZM230.872 130.7L236.252 127.165C238.231 125.864 239.836 124.308 241.066 122.497C242.295 120.685 243.122 118.755 243.547 116.705C244.012 114.628 244.053 112.535 243.671 110.425C243.261 108.274 242.419 106.23 241.146 104.292C239.873 102.354 238.344 100.791 236.559 99.6026C234.748 98.3728 232.796 97.5593 230.706 97.1622C228.656 96.7381 226.556 96.7309 224.405 97.1407C222.254 97.5505 220.189 98.4056 218.21 99.706L212.829 103.241L230.872 130.7Z" fill="#0C0C0C"/>
<path d="M267.558 118.22L244.061 72.0555L273.276 57.1852L277.472 65.4288L257.292 75.7004L262.629 86.1863L280.039 77.3245L284.135 85.3703L266.724 94.232L272.397 105.377L292.841 94.9715L297.037 103.215L267.558 118.22Z" fill="#0C0C0C"/>
<path d="M327.119 90.7546L310.019 41.8584L319.589 38.5117L336.689 87.4079L327.119 90.7546Z" fill="#0C0C0C"/>
<path d="M361.319 79.7876L367.534 24.7498L378.075 22.0643L370.928 77.3396L361.319 79.7876ZM360.243 80.0617L327.448 34.9619L337.989 32.2764L369.852 77.6137L360.243 80.0617Z" fill="#0C0C0C"/>
<path d="M417.457 85.1504L409.405 10.8453L417.057 10.0162L425.108 84.3213L417.457 85.1504Z" fill="#0C0C0C"/>
<path d="M478.642 66.8377C473.613 66.6629 469.191 65.3739 465.374 62.9706C461.56 60.518 458.613 57.2563 456.533 53.1856C454.455 49.0656 453.506 44.3925 453.688 39.1664C453.87 33.9402 455.139 29.3688 457.497 25.4524C459.856 21.4866 462.998 18.4365 466.922 16.3022C470.898 14.1202 475.4 13.1167 480.429 13.2914C483.979 13.4148 487.26 14.1705 490.272 15.5586C493.286 16.8974 495.888 18.7402 498.077 21.087C500.317 23.3862 502.003 26.0116 503.134 28.9634L493.621 32.1129C492.846 30.2595 491.792 28.6433 490.458 27.2641C489.125 25.8356 487.584 24.7208 485.835 23.9196C484.087 23.069 482.178 22.6078 480.108 22.5358C477.1 22.4313 474.386 23.1022 471.967 24.5483C469.598 25.9469 467.703 27.9296 466.281 30.4965C464.908 33.065 464.162 36.0749 464.042 39.5261C463.922 42.9774 464.481 46.0573 465.72 48.766C466.96 51.4253 468.737 53.5603 471.051 55.171C473.366 56.7323 476.052 57.5661 479.109 57.6723C481.229 57.746 483.165 57.4184 484.918 56.6895C486.722 55.913 488.315 54.833 489.696 53.4495C491.126 52.0676 492.293 50.4545 493.196 48.6101L502.47 52.3384C501.133 55.3031 499.266 57.9038 496.868 60.1406C494.519 62.379 491.794 64.0861 488.693 65.2618C485.592 66.4374 482.241 66.9627 478.642 66.8377Z" fill="#0C0C0C"/>
<path d="M529.541 71.5188C524.38 70.677 519.986 68.8106 516.358 65.9196C512.788 62.9879 510.204 59.3675 508.608 55.0583C507.019 50.7004 506.642 45.9652 507.476 40.8528C508.326 35.643 510.192 31.2488 513.075 27.6702C515.966 24.043 519.542 21.4271 523.802 19.8227C528.111 18.2263 532.822 17.845 537.935 18.6789C543.096 19.5207 547.437 21.4035 550.959 24.3273C554.538 27.2103 557.121 30.8307 558.71 35.1886C560.306 39.4978 560.684 44.233 559.842 49.3941C559.008 54.5066 557.145 58.8764 554.254 62.5037C551.42 66.0902 547.844 68.706 543.527 70.3511C539.267 71.9555 534.605 72.3448 529.541 71.5188ZM531.03 62.3895C534.146 62.8977 536.992 62.6121 539.567 61.5326C542.199 60.4124 544.383 58.6692 546.119 56.3031C547.903 53.9449 549.069 51.086 549.617 47.7264C550.173 44.3181 549.98 41.2125 549.037 38.4095C548.095 35.6066 546.55 33.2802 544.402 31.4304C542.263 29.5318 539.61 28.3245 536.446 27.8082C533.378 27.3079 530.504 27.6139 527.823 28.7262C525.199 29.7977 522.995 31.5126 521.211 33.8708C519.427 36.229 518.257 39.1123 517.701 42.5205C517.153 45.8802 517.35 48.9614 518.292 51.7644C519.235 54.5673 520.8 56.922 522.988 58.8285C525.185 60.6862 527.865 61.8732 531.03 62.3895Z" fill="#0C0C0C"/>
<path d="M558.501 75.1363L573.932 25.6881L584.458 28.9728L592.211 54.8032L613.279 37.9669L623.734 41.2295L608.303 90.6777L598.696 87.6796L609.409 53.3485L587.141 71.0504L578.871 43.8959L568.179 78.1564L558.501 75.1363Z" fill="#0C0C0C"/>
<path d="M633.313 102.89C629.425 101.072 626.407 98.7345 624.257 95.8776C622.108 93.0208 620.888 89.8636 620.599 86.4062C620.375 82.925 621.141 79.3075 622.896 75.5536L636.657 46.1261L645.84 50.4205L632.08 79.848C631.139 81.859 630.716 83.8123 630.81 85.7079C630.969 87.5796 631.598 89.2625 632.697 90.7565C633.84 92.2714 635.417 93.4991 637.428 94.4395C639.439 95.3798 641.37 95.7926 643.221 95.6779C645.117 95.584 646.811 94.9877 648.305 93.8892C649.865 92.7668 651.115 91.2001 652.055 89.1891L665.816 59.7616L675 64.056L661.239 93.4835C659.484 97.2374 657.154 100.123 654.249 102.142C651.41 104.136 648.183 105.214 644.568 105.375C640.998 105.557 637.246 104.729 633.313 102.89Z" fill="#0C0C0C"/>
<path d="M659.374 113.917L687.021 70.1118L695.969 75.7596L698.809 118.679L717.371 89.2669L725.882 94.6382L698.236 138.444L689.725 133.072L686.865 89.3526L667.947 119.328L659.374 113.917Z" fill="#0C0C0C"/>
<path d="M704.287 143.346L735.819 102.248L743.862 108.419L712.331 149.517L704.287 143.346Z" fill="#0C0C0C"/>
<path d="M720.373 155.006L755.369 116.816L767.59 128.015C771.482 131.581 774.169 135.549 775.652 139.919C777.171 144.322 777.45 148.727 776.49 153.134C775.6 157.537 773.438 161.612 770.005 165.358C766.606 169.068 762.734 171.576 758.392 172.883C754.086 174.223 749.673 174.329 745.155 173.199C740.672 172.103 736.485 169.771 732.594 166.205L720.373 155.006ZM734.246 154.872L738.993 159.222C740.739 160.821 742.641 161.995 744.698 162.744C746.756 163.492 748.831 163.82 750.922 163.729C753.049 163.671 755.089 163.198 757.04 162.31C759.025 161.385 760.801 160.068 762.367 158.359C763.934 156.649 765.074 154.784 765.789 152.762C766.538 150.705 766.848 148.614 766.72 146.489C766.629 144.398 766.121 142.36 765.196 140.375C764.272 138.39 762.937 136.598 761.191 134.998L756.444 130.649L734.246 154.872Z" fill="#0C0C0C"/>
<path d="M780.439 216.184L806.84 167.404L813.441 175.098L787.425 224.328L780.439 216.184ZM753.793 185.126L806.406 166.898L813.008 174.593L760.78 193.269L753.793 185.126ZM768.706 185.007L775.502 179.176L796.655 203.832L789.859 209.663L768.706 185.007Z" fill="#0C0C0C"/>
<path d="M788.282 225.605L831.364 196.843L840.567 210.629C843.498 215.02 845.164 219.513 845.564 224.11C845.991 228.749 845.214 233.093 843.232 237.145C841.32 241.21 838.25 244.653 834.024 247.474C829.839 250.268 825.482 251.783 820.953 252.019C816.452 252.295 812.141 251.347 808.021 249.174C803.929 247.042 800.417 243.781 797.486 239.391L788.282 225.605ZM801.789 228.778L805.364 234.132C806.679 236.101 808.246 237.694 810.067 238.911C811.888 240.127 813.824 240.94 815.877 241.349C817.957 241.8 820.05 241.826 822.157 241.427C824.305 241.002 826.343 240.145 828.272 238.858C830.2 237.57 831.752 236.03 832.928 234.237C834.144 232.416 834.943 230.459 835.325 228.366C835.734 226.313 835.726 224.213 835.3 222.065C834.875 219.917 834.005 217.858 832.69 215.889L829.115 210.534L801.789 228.778Z" fill="#0C0C0C"/>
<path d="M814.686 265.776L860.675 241.938L875.761 271.042L867.549 275.299L857.128 255.195L846.682 260.61L855.672 277.954L847.657 282.109L838.667 264.764L827.564 270.52L838.121 290.886L829.908 295.143L814.686 265.776Z" fill="#0C0C0C"/>
<path d="M842.313 324.718L891.079 307.251L894.497 316.795L845.731 334.262L842.313 324.718Z" fill="#0C0C0C"/>
<path d="M853.591 359.208L908.675 365.005L911.44 375.526L856.112 368.798L853.591 359.208ZM853.309 358.135L898.159 324.998L900.924 335.519L855.83 367.725L853.309 358.135Z" fill="#0C0C0C"/>
<path d="M848.223 413.007L922.43 404.099L923.347 411.74L849.14 420.648L848.223 413.007Z" fill="#0C0C0C"/>
<path fill-rule="evenodd" clip-rule="evenodd" d="M324.199 332H247L466.5 712L505.099 645.176L324.199 332ZM543.806 578.167L686 332H401.612L543.806 578.167Z" fill="#0C0C0C"/>
</svg>
