<svg width="935" height="935" viewBox="0 0 935 935" fill="none" xmlns="http://www.w3.org/2000/svg">
<path d="M866.573 491.036C866.88 486.063 868.287 481.701 870.792 477.951C873.344 474.254 876.682 471.42 880.807 469.451C884.979 467.534 889.674 466.737 894.894 467.059C900.113 467.382 904.65 468.75 908.505 471.163C912.405 473.628 915.369 476.851 917.397 480.832C919.474 484.816 920.359 489.294 920.051 494.267C919.844 497.616 919.034 500.729 917.62 503.607C916.256 506.488 914.445 508.996 912.188 511.13C909.928 513.314 907.356 514.934 904.473 515.992L901.781 507.966C903.707 507.196 905.431 506.091 906.954 504.653C908.522 503.267 909.76 501.638 910.666 499.767C911.573 497.895 912.091 495.901 912.222 493.783C912.423 490.534 911.79 487.578 910.324 484.917C908.854 482.306 906.737 480.173 903.972 478.519C901.254 476.918 898.048 476.003 894.355 475.775C890.662 475.546 887.344 476.058 884.4 477.309C881.452 478.61 879.087 480.49 877.304 482.95C875.518 485.46 874.523 488.364 874.319 491.663C874.185 493.829 874.479 495.874 875.2 497.797C875.968 499.772 877.069 501.545 878.504 503.117C879.936 504.738 881.634 506.054 883.598 507.065L879.938 514.697C877.109 513.287 874.632 511.379 872.507 508.974C870.432 506.572 868.871 503.831 867.826 500.752C866.78 497.672 866.363 494.433 866.573 491.036Z" fill="#FAFAFA"/>
<path d="M860.323 541.729C861.284 536.689 863.249 532.443 866.218 528.991C869.187 525.54 872.87 523.078 877.269 521.607C881.659 520.184 886.422 519.963 891.559 520.943C896.695 521.923 901.019 523.877 904.528 526.806C908.076 529.794 910.6 533.414 912.099 537.667C913.646 541.93 913.944 546.557 912.992 551.548C912.031 556.588 910.046 560.805 907.038 564.199C904.07 567.651 900.395 570.064 896.015 571.438C891.674 572.87 886.935 573.096 881.798 572.116C876.661 571.136 872.314 569.177 868.756 566.239C865.189 563.348 862.656 559.777 861.157 555.523C859.649 551.318 859.371 546.72 860.323 541.729ZM868.028 543.198C867.4 546.493 867.645 549.554 868.763 552.378C869.882 555.203 871.688 557.582 874.182 559.514C876.716 561.504 879.8 562.846 883.434 563.539C887.02 564.223 890.357 564.106 893.445 563.188C896.533 562.271 899.097 560.675 901.138 558.403C903.218 556.188 904.577 553.409 905.214 550.065C905.843 546.77 905.602 543.685 904.493 540.812C903.423 537.996 901.626 535.569 899.102 533.531C896.617 531.55 893.557 530.213 889.923 529.52C886.288 528.827 882.927 528.939 879.839 529.857C876.79 530.832 874.221 532.452 872.132 534.715C870.034 537.027 868.666 539.854 868.028 543.198Z" fill="#FAFAFA"/>
<path d="M855.818 570.117L904.841 586.848L901.877 595.532L873.928 603.195L891.408 626.207L888.421 634.961L839.397 618.23L842.17 610.106L878.377 622.463L860.225 598.441L889.112 590.55L853.045 578.241L855.818 570.117Z" fill="#FAFAFA"/>
<path d="M826.104 643.704C827.935 640.041 830.273 637.183 833.118 635.131C835.986 633.144 839.151 632.051 842.615 631.852C846.057 631.697 849.565 632.512 853.14 634.298L882.531 648.985L878.694 656.663L849.303 641.977C847.14 640.897 845.022 640.39 842.948 640.456C840.897 640.589 838.999 641.241 837.257 642.41C835.558 643.602 834.18 645.257 833.121 647.375C832.041 649.538 831.534 651.656 831.6 653.73C831.689 655.87 832.307 657.778 833.455 659.454C834.647 661.153 836.324 662.543 838.486 663.623L867.877 678.309L864.04 685.988L834.649 671.302C831.075 669.516 828.327 667.178 826.407 664.288C824.465 661.442 823.449 658.232 823.36 654.658C823.293 651.15 824.208 647.499 826.104 643.704Z" fill="#FAFAFA"/>
<path d="M814.006 669.786L857.087 698.548L852.157 705.933L805.73 708.037L836.872 728.828L832.106 735.967L789.025 707.205L793.791 700.066L840.751 697.962L809.24 676.925L814.006 669.786Z" fill="#FAFAFA"/>
<path d="M782.985 714.233L823.264 746.802L817.867 753.477L777.587 720.907L782.985 714.233Z" fill="#FAFAFA"/>
<path d="M770.462 730.199L807.75 766.155L796.449 777.874C792.922 781.532 789.007 783.993 784.703 785.258C780.401 786.592 776.077 786.705 771.731 785.598C767.35 784.526 763.331 782.227 759.673 778.7C756.051 775.207 753.625 771.291 752.394 766.952C751.13 762.649 751.069 758.306 752.21 753.924C753.317 749.577 755.635 745.575 759.162 741.918L770.462 730.199ZM770.257 741.925L764.915 747.465C763.237 749.205 761.981 751.147 761.148 753.291C760.35 755.468 759.989 757.69 760.065 759.957C760.141 762.223 760.652 764.429 761.598 766.575C762.545 768.721 763.923 770.668 765.734 772.414C767.545 774.16 769.54 775.467 771.719 776.335C773.898 777.203 776.122 777.633 778.389 777.627C780.657 777.621 782.847 777.162 784.958 776.251C787.106 775.375 789.018 774.067 790.696 772.327L796.038 766.787L770.257 741.925Z" fill="#FAFAFA"/>
<path d="M708.284 787.855L756.662 815.257L750.007 820.678L701.227 793.604L708.284 787.855ZM740.355 761.729L757.064 814.93L750.351 820.398L733.298 767.478L740.355 761.729ZM740.878 777.72L745.692 783.629L721.653 803.212L716.839 797.303L740.878 777.72Z" fill="#FAFAFA"/>
<path d="M699.457 794.708L727.103 838.513L713.336 847.202C709.039 849.914 704.65 851.371 700.169 851.574C695.673 851.845 691.446 850.925 687.489 848.814C683.49 846.729 680.134 843.538 677.422 839.241C674.736 834.986 673.313 830.605 673.152 826.098C672.949 821.617 673.924 817.385 676.077 813.401C678.188 809.443 681.392 806.109 685.689 803.397L699.457 794.708ZM696.463 806.048L689.955 810.155C687.91 811.445 686.228 813.032 684.908 814.915C683.615 816.84 682.735 818.912 682.269 821.132C681.802 823.351 681.773 825.615 682.181 827.925C682.588 830.234 683.464 832.453 684.806 834.581C686.149 836.708 687.775 838.453 689.685 839.815C691.594 841.177 693.651 842.125 695.855 842.659C698.059 843.193 700.295 843.269 702.563 842.888C704.857 842.549 707.026 841.734 709.07 840.444L715.579 836.336L696.463 806.048Z" fill="#FAFAFA"/>
<path d="M657.497 820.535L680.134 867.127L651.446 881.065L648.019 874.01L668.985 863.823L662.97 851.443L644.466 860.433L641.103 853.511L659.607 844.521L653.204 831.342L632.038 841.625L628.61 834.57L657.497 820.535Z" fill="#FAFAFA"/>
<path d="M599.033 845.952L615.394 895.1L607.249 897.811L590.888 848.663L599.033 845.952Z" fill="#FAFAFA"/>
<path d="M564.094 856.35L556.185 911.412L547.252 913.508L555.809 858.294L564.094 856.35ZM564.959 856.147L597.178 901.795L588.317 903.874L556.746 858.074L564.959 856.147Z" fill="#FAFAFA"/>
<path d="M509.075 849.628L515.983 924.048L509.278 924.67L502.37 850.25L509.075 849.628Z" fill="#FAFAFA"/>
<path d="M445.934 866.699C450.91 866.968 455.282 868.34 459.051 870.817C462.768 873.34 465.627 876.656 467.628 880.766C469.577 884.923 470.411 889.612 470.128 894.834C469.846 900.056 468.513 904.603 466.13 908.476C463.695 912.395 460.495 915.384 456.53 917.443C452.562 919.55 448.091 920.469 443.115 920.2C439.765 920.019 436.646 919.233 433.757 917.842C430.865 916.5 428.344 914.708 426.192 912.467C423.991 910.224 422.351 907.665 421.271 904.79L429.276 902.037C430.061 903.956 431.179 905.672 432.629 907.183C434.027 908.741 435.665 909.966 437.544 910.858C439.422 911.75 441.421 912.253 443.539 912.368C446.79 912.544 449.74 911.888 452.39 910.401C454.99 908.911 457.106 906.778 458.739 904C460.319 901.27 461.209 898.057 461.409 894.362C461.609 890.668 461.072 887.353 459.798 884.419C458.474 881.482 456.576 879.131 454.102 877.367C451.579 875.6 448.667 874.628 445.367 874.449C443.199 874.332 441.157 874.642 439.24 875.378C437.271 876.161 435.506 877.276 433.945 878.723C432.336 880.167 431.033 881.875 430.037 883.847L422.376 880.246C423.765 877.406 425.654 874.915 428.042 872.771C430.428 870.677 433.157 869.095 436.228 868.026C439.3 866.957 442.535 866.515 445.934 866.699Z" fill="#FAFAFA"/>
<path d="M394.774 860.752C399.821 861.675 404.082 863.607 407.556 866.549C411.03 869.491 413.52 873.156 415.025 877.544C416.481 881.922 416.739 886.684 415.798 891.828C414.858 896.972 412.936 901.31 410.034 904.841C407.074 908.412 403.473 910.964 399.231 912.495C394.981 914.075 390.356 914.408 385.357 913.494C380.31 912.572 376.079 910.619 372.662 907.638C369.188 904.696 366.747 901.04 365.339 896.67C363.874 892.34 363.611 887.603 364.552 882.459C365.492 877.315 367.418 872.952 370.329 869.372C373.192 865.783 376.745 863.223 380.986 861.692C385.18 860.151 389.776 859.838 394.774 860.752ZM393.364 868.468C390.064 867.865 387.005 868.133 384.189 869.273C381.373 870.413 379.008 872.238 377.095 874.747C375.125 877.295 373.807 880.389 373.141 884.029C372.485 887.62 372.627 890.956 373.568 894.037C374.51 897.118 376.124 899.67 378.413 901.693C380.643 903.756 383.433 905.093 386.781 905.706C390.081 906.309 393.164 906.045 396.029 904.914C398.836 903.822 401.249 902.006 403.268 899.467C405.23 896.967 406.543 893.897 407.209 890.257C407.874 886.618 407.736 883.257 406.795 880.177C405.796 877.135 404.157 874.579 401.878 872.507C399.55 870.427 396.712 869.08 393.364 868.468Z" fill="#FAFAFA"/>
<path d="M366.875 856.575L350.514 905.723L341.808 902.825L333.934 874.934L311.055 892.588L302.279 889.666L318.64 840.518L326.784 843.229L314.7 879.528L338.586 861.196L346.694 890.023L358.731 853.864L366.875 856.575Z" fill="#FAFAFA"/>
<path d="M293.02 827.413C296.696 829.216 299.571 831.533 301.645 834.363C303.652 837.216 304.769 840.373 304.994 843.835C305.175 847.276 304.385 850.79 302.625 854.378L288.158 883.877L280.451 880.097L294.919 850.598C295.983 848.428 296.474 846.306 296.392 844.232C296.244 842.182 295.579 840.289 294.396 838.555C293.192 836.866 291.526 835.5 289.4 834.457C287.23 833.392 285.108 832.901 283.035 832.983C280.896 833.088 278.992 833.72 277.324 834.88C275.634 836.085 274.257 837.772 273.193 839.942L258.725 869.441L251.018 865.662L265.486 836.162C267.246 832.575 269.563 829.81 272.438 827.869C275.27 825.905 278.472 824.866 282.045 824.75C285.552 824.657 289.211 825.545 293.02 827.413Z" fill="#FAFAFA"/>
<path d="M266.905 815.565L238.46 858.856L231.039 853.979L228.595 807.569L208.033 838.863L200.859 834.149L229.304 790.858L236.478 795.572L238.926 842.515L259.731 810.851L266.905 815.565Z" fill="#FAFAFA"/>
<path d="M222.229 784.89L189.953 825.406L183.239 820.058L215.514 779.542L222.229 784.89Z" fill="#FAFAFA"/>
<path d="M206.232 772.57L170.547 810.118L158.746 798.903C155.063 795.402 152.574 791.505 151.278 787.211C149.913 782.919 149.768 778.595 150.843 774.241C151.883 769.853 154.153 765.817 157.654 762.133C161.12 758.486 165.019 756.031 169.348 754.77C173.642 753.474 177.985 753.381 182.375 754.491C186.729 755.566 190.748 757.854 194.431 761.355L206.232 772.57ZM194.504 772.45L188.926 767.148C187.173 765.483 185.222 764.241 183.073 763.423C180.89 762.642 178.665 762.297 176.399 762.389C174.133 762.482 171.931 763.009 169.792 763.971C167.653 764.932 165.717 766.325 163.983 768.149C162.25 769.973 160.958 771.977 160.106 774.162C159.254 776.347 158.84 778.574 158.863 780.841C158.885 783.109 159.36 785.295 160.286 787.4C161.178 789.541 162.5 791.444 164.252 793.11L169.831 798.411L194.504 772.45Z" fill="#FAFAFA"/>
<path d="M148.167 710.926L121.119 759.503L115.649 752.888L142.367 703.911L148.167 710.926ZM174.526 742.807L121.449 759.902L115.932 753.23L168.726 735.792L174.526 742.807ZM158.54 743.446L152.666 748.303L132.908 724.407L138.782 719.55L158.54 743.446Z" fill="#FAFAFA"/>
<path d="M141.491 702.467L97.9929 730.594L89.1529 716.923C86.3938 712.656 84.8882 708.284 84.6362 703.806C84.316 699.313 85.1895 695.076 87.2568 691.096C89.2973 687.074 92.451 683.683 96.718 680.924C100.944 678.192 105.309 676.72 109.814 676.51C114.292 676.258 118.535 677.186 122.542 679.295C126.522 681.362 129.892 684.529 132.651 688.796L141.491 702.467ZM130.119 699.598L125.94 693.136C124.628 691.106 123.022 689.441 121.125 688.142C119.186 686.87 117.104 686.013 114.88 685.571C112.656 685.129 110.391 685.125 108.086 685.558C105.781 685.991 103.572 686.891 101.459 688.257C99.3467 689.623 97.62 691.268 96.2794 693.193C94.9387 695.117 94.0135 697.184 93.5036 699.394C92.9937 701.603 92.9419 703.84 93.3481 706.103C93.7128 708.394 94.5515 710.554 95.8641 712.584L100.043 719.046L130.119 699.598Z" fill="#FAFAFA"/>
<path d="M115.119 660.61L68.6965 683.593L54.546 655.009L61.5757 651.529L71.9177 672.419L84.2528 666.313L75.1256 647.876L82.0227 644.462L91.1499 662.898L104.281 656.398L93.8404 635.308L100.87 631.828L115.119 660.61Z" fill="#FAFAFA"/>
<path d="M89.3369 602.786L40.3133 619.517L37.5407 611.394L86.5643 594.662L89.3369 602.786Z" fill="#FAFAFA"/>
<path d="M78.6783 568.228L23.5297 560.949L21.3321 552.04L76.6401 559.966L78.6783 568.228ZM78.8909 569.09L33.6141 601.829L31.4342 592.992L76.8705 560.9L78.8909 569.09Z" fill="#FAFAFA"/>
<path d="M84.7472 512.788L10.3825 520.268L9.70854 513.568L84.0733 506.088L84.7472 512.788Z" fill="#FAFAFA"/>
<path d="M67.0408 450.795C66.8294 455.773 65.5073 460.161 63.0746 463.959C60.5948 467.705 57.3115 470.602 53.2249 472.651C49.0911 474.648 44.4119 475.535 39.1872 475.313C33.9626 475.091 29.4002 473.811 25.4999 471.473C21.5524 469.083 18.5267 465.918 16.4227 461.977C14.2694 458.034 13.2985 453.574 13.51 448.596C13.6523 445.244 14.4024 442.116 15.7603 439.211C17.0688 436.303 18.831 433.761 21.0467 431.584C23.2645 429.357 25.8043 427.688 28.6661 426.575L31.5124 434.547C29.6017 435.354 27.8992 436.492 26.405 437.959C24.8635 439.375 23.6576 441.027 22.7873 442.916C21.9171 444.805 21.4369 446.809 21.3469 448.928C21.2087 452.181 21.8985 455.124 23.4161 457.756C24.9359 460.339 27.0937 462.43 29.8897 464.031C32.6384 465.579 35.8612 466.432 39.5578 466.589C43.2545 466.746 46.5626 466.171 49.482 464.863C52.4036 463.506 54.7321 461.58 56.4675 459.086C58.205 456.543 59.1438 453.62 59.2841 450.318C59.3762 448.149 59.0431 446.11 58.2848 444.202C57.4792 442.242 56.3439 440.49 54.8787 438.946C53.4157 437.354 51.6926 436.071 49.7094 435.098L53.2214 427.396C56.0771 428.751 58.5905 430.611 60.7615 432.975C62.8831 435.336 64.4962 438.046 65.6008 441.105C66.7053 444.164 67.1853 447.394 67.0408 450.795Z" fill="#FAFAFA"/>
<path d="M72.5535 398.437C71.6695 403.491 69.7697 407.766 66.8543 411.262C63.9389 414.759 60.2932 417.277 55.9174 418.815C51.55 420.305 46.7908 420.599 41.6397 419.698C36.4885 418.797 32.1361 416.909 28.5824 414.033C24.9886 411.101 22.4098 407.52 20.846 403.29C19.2335 399.051 18.8651 394.429 19.7406 389.424C20.6247 384.37 22.5445 380.123 25.5 376.684C28.4155 373.187 32.0526 370.718 36.4115 369.277C40.7302 367.779 45.4651 367.48 50.6163 368.381C55.7674 369.282 60.1441 371.175 63.7464 374.058C67.3572 376.894 69.9445 380.426 71.5084 384.656C73.0807 388.838 73.4291 393.431 72.5535 398.437ZM64.8269 397.085C65.4049 393.781 65.1131 390.725 63.9515 387.917C62.7899 385.11 60.9474 382.759 58.4239 380.865C55.8604 378.914 52.7563 377.62 49.1117 376.983C45.5156 376.353 42.1808 376.521 39.1072 377.486C36.0337 378.451 33.4941 380.085 31.4885 382.389C29.4429 384.635 28.1267 387.435 27.5402 390.788C26.9622 394.093 27.2497 397.173 28.4028 400.029C29.5158 402.828 31.3499 405.227 33.9049 407.227C36.4198 409.169 39.4996 410.459 43.1443 411.097C46.7889 411.734 50.148 411.57 53.2216 410.606C56.255 409.584 58.7989 407.925 60.853 405.63C62.9157 403.286 64.2403 400.438 64.8269 397.085Z" fill="#FAFAFA"/>
<path d="M76.1642 371.615L26.834 355.811L29.6335 347.072L57.4334 338.884L39.5224 316.206L42.3446 307.397L91.6748 323.201L89.0558 331.376L52.622 319.703L71.2233 343.379L42.4902 351.813L78.7831 363.44L76.1642 371.615Z" fill="#FAFAFA"/>
<path d="M104.285 297.729C102.523 301.425 100.238 304.325 97.4315 306.43C94.6012 308.47 91.4563 309.621 87.9969 309.885C84.5586 310.104 81.0359 309.354 77.4288 307.634L47.7704 293.496L51.4643 285.747L81.1227 299.885C83.3047 300.926 85.4319 301.393 87.5042 301.288C89.5531 301.117 91.4379 300.431 93.1586 299.229C94.8347 298.006 96.1823 296.325 97.2012 294.188C98.2415 292.006 98.709 289.879 98.6038 287.806C98.4753 285.668 97.8218 283.772 96.6432 282.117C95.4201 280.441 93.7175 279.083 91.5355 278.042L61.8771 263.904L65.5709 256.155L95.2293 270.294C98.8364 272.013 101.627 274.3 103.6 277.154C105.595 279.963 106.67 283.153 106.825 286.725C106.957 290.231 106.111 293.899 104.285 297.729Z" fill="#FAFAFA"/>
<path d="M115.673 271.551L72.0721 243.584L76.8665 236.109L123.247 233.155L91.7292 212.938L96.3638 205.713L139.965 233.68L135.33 240.906L88.4168 243.87L120.308 264.326L115.673 271.551Z" fill="#FAFAFA"/>
<path d="M146.935 224.969L106.185 192.99L111.484 186.237L152.235 218.216L146.935 224.969Z" fill="#FAFAFA"/>
<path d="M158.818 209.151L121.012 173.74L132.141 161.858C135.615 158.15 139.494 155.632 143.779 154.305C148.061 152.909 152.383 152.732 156.745 153.776C161.141 154.784 165.193 157.025 168.902 160.499C172.574 163.939 175.057 167.819 176.35 172.139C177.677 176.424 177.802 180.765 176.724 185.163C175.68 189.525 173.421 193.561 169.947 197.269L158.818 209.151ZM158.853 197.423L164.115 191.806C165.767 190.042 166.994 188.082 167.796 185.927C168.562 183.738 168.891 181.51 168.782 179.245C168.673 176.98 168.13 174.782 167.153 172.65C166.175 170.518 164.769 168.592 162.932 166.872C161.096 165.152 159.082 163.874 156.891 163.038C154.7 162.202 152.47 161.804 150.203 161.843C147.936 161.883 145.753 162.373 143.654 163.314C141.52 164.222 139.627 165.558 137.974 167.322L132.713 172.939L158.853 197.423Z" fill="#FAFAFA"/>
<path d="M218.535 151.686L169.665 125.169L176.221 119.628L225.486 145.81L218.535 151.686ZM186.944 178.392L169.27 125.504L175.882 119.914L193.895 172.516L186.944 178.392ZM186.13 162.413L181.21 156.592L204.889 136.575L209.809 142.396L186.13 162.413Z" fill="#FAFAFA"/>
<path d="M228.034 143.899L199.588 100.608L213.194 91.668C217.441 88.8777 221.802 87.3401 226.278 87.0552C230.769 86.7021 235.011 87.5445 239.007 89.5826C243.044 91.5935 246.457 94.7223 249.248 98.9689C252.011 103.174 253.514 107.529 253.758 112.032C254.043 116.508 253.146 120.758 251.066 124.78C249.028 128.776 245.886 132.169 241.639 134.959L228.034 143.899ZM230.819 132.506L237.251 128.28C239.271 126.952 240.924 125.335 242.209 123.428C243.467 121.48 244.309 119.392 244.734 117.164C245.159 114.937 245.147 112.672 244.697 110.371C244.247 108.069 243.332 105.867 241.95 103.764C240.568 101.661 238.91 99.9467 236.976 98.6203C235.042 97.2938 232.968 96.3837 230.755 95.8901C228.542 95.3964 226.305 95.3609 224.044 95.7837C221.757 96.1653 219.603 97.0197 217.583 98.3472L211.151 102.573L230.819 132.506Z" fill="#FAFAFA"/>
<path d="M268.019 117.985L244.522 71.8205L272.946 57.3531L276.504 64.3436L255.731 74.9173L261.974 87.1838L280.308 77.8521L283.799 84.7108L265.465 94.0425L272.111 107.1L293.083 96.426L296.641 103.417L268.019 117.985Z" fill="#FAFAFA"/>
<path d="M327.608 90.5836L310.508 41.6874L318.611 38.8537L335.711 87.7499L327.608 90.5836Z" fill="#FAFAFA"/>
<path d="M361.462 79.7511L368.323 24.5488L377.215 22.2835L369.709 77.6502L361.462 79.7511ZM360.602 79.9703L327.52 34.9437L336.34 32.6966L368.777 77.8877L360.602 79.9703Z" fill="#FAFAFA"/>
<path d="M417.972 85.0946L409.92 10.7895L416.615 10.0641L424.667 84.3691L417.972 85.0946Z" fill="#FAFAFA"/>
<path d="M478.716 66.8402C473.736 66.6672 469.339 65.379 465.522 62.9757C461.757 60.5248 458.835 57.264 456.755 53.1933C454.726 49.075 453.802 44.4028 453.984 39.1766C454.166 33.9505 455.41 29.3783 457.719 25.4601C460.078 21.4943 463.219 18.4442 467.144 16.3099C471.07 14.1262 475.523 13.1209 480.503 13.294C483.855 13.4105 486.989 14.1364 489.905 15.4718C492.822 16.7579 495.378 18.5004 497.572 20.6992C499.815 22.8998 501.505 25.4267 502.64 28.2798L494.69 31.1875C493.868 29.2831 492.717 27.5894 491.238 26.1065C489.811 24.576 488.149 23.3829 486.254 22.5273C484.358 21.6716 482.35 21.2069 480.23 21.1332C476.976 21.0202 474.039 21.7326 471.419 23.2705C468.848 24.8102 466.773 26.9841 465.195 29.7923C463.667 32.5529 462.839 35.7821 462.711 39.4799C462.582 43.1777 463.183 46.4812 464.514 49.3905C465.893 52.3015 467.837 54.615 470.344 56.3311C472.901 58.049 475.831 58.9653 479.134 59.0801C481.303 59.1554 483.339 58.8066 485.242 58.0335C487.196 57.2129 488.939 56.0641 490.471 54.5871C492.052 53.1118 493.322 51.3788 494.28 49.3882L502.008 52.8407C500.675 55.7068 498.834 58.2344 496.488 60.4235C494.143 62.5634 491.445 64.1974 488.395 65.3254C485.344 66.4535 482.118 66.9584 478.716 66.8402Z" fill="#FAFAFA"/>
<path d="M529.395 71.495C524.331 70.6691 520.034 68.8185 516.504 65.9435C512.975 63.0684 510.415 59.4519 508.827 55.094C507.287 50.7441 506.938 45.9885 507.78 40.8274C508.622 35.6663 510.46 31.2924 513.294 27.7059C516.185 24.0787 519.736 21.4589 523.948 19.8466C528.168 18.1855 532.785 17.764 537.8 18.582C542.864 19.408 547.133 21.2788 550.606 24.1947C554.136 27.0697 556.646 30.6783 558.137 35.0203C559.685 39.3216 560.038 44.0528 559.196 49.2139C558.355 54.375 556.512 58.7732 553.67 62.4084C550.877 66.0515 547.374 68.6792 543.162 70.2916C538.999 71.9119 534.41 72.313 529.395 71.495ZM530.658 63.7533C533.968 64.2933 537.021 63.9665 539.815 62.7727C542.609 61.5789 544.938 59.7095 546.803 57.1645C548.724 54.5787 549.983 51.4599 550.578 47.8082C551.166 44.2051 550.96 40.8725 549.96 37.8102C548.96 34.7479 547.296 32.2273 544.97 30.2483C542.7 28.2286 539.885 26.9447 536.526 26.3968C533.215 25.8567 530.138 26.1796 527.295 27.3655C524.509 28.5106 522.131 30.372 520.161 32.9499C518.248 35.4869 516.994 38.5813 516.398 42.2331C515.802 45.8848 516.005 49.2418 517.005 52.3041C518.061 55.3256 519.749 57.8502 522.067 59.8779C524.435 61.9135 527.298 63.2053 530.658 63.7533Z" fill="#FAFAFA"/>
<path d="M558.996 75.2906L574.427 25.8424L583.186 28.576L591.585 56.3132L614.127 38.2315L622.957 40.987L607.526 90.4352L599.331 87.878L610.728 51.357L587.193 70.1366L578.543 41.468L567.19 77.8477L558.996 75.2906Z" fill="#FAFAFA"/>
<path d="M633.313 102.89C629.604 101.155 626.686 98.8926 624.561 96.1014C622.5 93.2863 621.326 90.1501 621.036 86.6927C620.792 83.2562 621.516 79.728 623.208 76.1082L637.126 46.3455L644.902 49.9817L630.984 79.7443C629.96 81.9341 629.509 84.0647 629.629 86.1361C629.815 88.1837 630.516 90.0634 631.73 91.7751C632.966 93.442 634.656 94.7771 636.801 95.7801C638.991 96.8041 641.122 97.2558 643.193 97.1352C645.33 96.9909 647.221 96.3232 648.868 95.1324C650.535 93.8969 651.88 92.1842 652.904 89.9945L666.822 60.2318L674.597 63.8679L660.68 93.6306C658.987 97.2504 656.721 100.058 653.883 102.052C651.088 104.068 647.906 105.166 644.335 105.348C640.83 105.507 637.156 104.687 633.313 102.89Z" fill="#FAFAFA"/>
<path d="M659.812 114.194L687.459 70.3882L694.968 75.1276L698.263 121.485L718.247 89.8198L725.507 94.4013L697.86 138.207L690.601 133.625L687.293 86.7345L667.071 118.775L659.812 114.194Z" fill="#FAFAFA"/>
<path d="M704.698 143.661L736.23 102.563L743.04 107.789L711.509 148.886L704.698 143.661Z" fill="#FAFAFA"/>
<path d="M720.755 155.356L755.751 117.166L767.754 128.165C771.5 131.598 774.06 135.449 775.433 139.719C776.877 143.986 777.1 148.306 776.104 152.679C775.144 157.086 772.947 161.162 769.514 164.908C766.114 168.618 762.262 171.143 757.955 172.483C753.686 173.857 749.346 174.029 744.936 172.999C740.563 172.003 736.503 169.788 732.757 166.355L720.755 155.356ZM732.483 155.263L738.157 160.463C739.939 162.096 741.912 163.302 744.076 164.08C746.273 164.822 748.504 165.127 750.767 164.993C753.031 164.859 755.224 164.292 757.345 163.292C759.466 162.291 761.377 160.864 763.076 159.009C764.776 157.154 766.032 155.126 766.844 152.926C767.656 150.726 768.03 148.492 767.966 146.225C767.902 143.958 767.388 141.781 766.424 139.693C765.493 137.569 764.137 135.69 762.354 134.057L756.68 128.858L732.483 155.263Z" fill="#FAFAFA"/>
<path d="M780.776 216.577L806.936 167.516L812.526 174.031L786.702 223.485L780.776 216.577ZM753.841 185.182L806.599 167.123L812.237 173.694L759.768 192.09L753.841 185.182ZM769.814 184.252L775.598 179.289L795.787 202.821L790.002 207.784L769.814 184.252Z" fill="#FAFAFA"/>
<path d="M788.57 226.036L831.651 197.274L840.691 210.814C843.512 215.04 845.082 219.39 845.399 223.864C845.785 228.352 844.974 232.601 842.965 236.611C840.984 240.663 837.88 244.099 833.654 246.92C829.469 249.714 825.126 251.25 820.625 251.526C816.151 251.844 811.895 250.978 807.857 248.928C803.847 246.919 800.431 243.802 797.609 239.576L788.57 226.036ZM799.983 228.738L804.256 235.138C805.598 237.149 807.228 238.79 809.144 240.061C811.102 241.305 813.196 242.131 815.426 242.54C817.657 242.949 819.921 242.92 822.219 242.454C824.518 241.987 826.713 241.055 828.806 239.658C830.898 238.261 832.601 236.591 833.913 234.647C835.225 232.703 836.12 230.623 836.597 228.406C837.075 226.189 837.094 223.952 836.655 221.694C836.256 219.41 835.386 217.262 834.044 215.252L829.771 208.851L799.983 228.738Z" fill="#FAFAFA"/>
<path d="M814.924 266.236L860.913 242.397L875.591 270.713L868.627 274.323L857.9 253.628L845.68 259.962L855.147 278.227L848.314 281.768L838.847 263.504L825.839 270.247L836.668 291.139L829.704 294.749L814.924 266.236Z" fill="#FAFAFA"/>
<path d="M842.487 325.206L891.253 307.739L894.148 315.82L845.382 333.287L842.487 325.206Z" fill="#FAFAFA"/>
<path d="M853.629 359.351L908.882 365.792L911.215 374.667L855.793 367.582L853.629 359.351ZM853.403 358.493L898.177 325.07L900.491 333.873L855.548 366.651L853.403 358.493Z" fill="#FAFAFA"/>
<path d="M848.284 413.521L922.492 404.613L923.294 411.299L849.087 420.207L848.284 413.521Z" fill="#FAFAFA"/>
<path fill-rule="evenodd" clip-rule="evenodd" d="M324.199 332H247L466.5 712L505.099 645.176L324.199 332ZM543.806 578.167L686 332H401.612L543.806 578.167Z" fill="#FAFAFA"/>
</svg>
