<svg width="2512" height="315" viewBox="0 0 2512 315" fill="none" xmlns="http://www.w3.org/2000/svg">
<path fill-rule="evenodd" clip-rule="evenodd" d="M2241.56 31L2184 31L2347.67 314.499L2376.46 264.643L2241.56 31ZM2405.32 214.651L2511.35 31L2299.29 31L2405.32 214.651Z" fill="#0C0C0C"/>
<path d="M98.56 246.072C81.152 246.072 65.7067 242.147 52.224 234.296C38.7413 226.275 28.16 215.352 20.48 201.528C12.8 187.533 8.96 171.491 8.96 153.4C8.96 135.309 12.8 119.352 20.48 105.528C28.16 91.5333 38.656 80.6107 51.968 72.76C65.4507 64.7387 80.896 60.728 98.304 60.728C110.592 60.728 122.027 62.9467 132.608 67.384C143.189 71.6507 152.405 77.7093 160.256 85.56C168.277 93.24 174.421 102.115 178.688 112.184L146.176 124.216C143.275 117.901 139.435 112.44 134.656 107.832C129.877 103.053 124.416 99.384 118.272 96.824C112.128 94.0933 105.472 92.728 98.304 92.728C87.8933 92.728 78.592 95.3733 70.4 100.664C62.3787 105.784 56.064 112.867 51.456 121.912C47.0187 130.957 44.8 141.453 44.8 153.4C44.8 165.347 47.104 175.928 51.712 185.144C56.32 194.189 62.72 201.357 70.912 206.648C79.104 211.768 88.4907 214.328 99.072 214.328C106.411 214.328 113.067 212.963 119.04 210.232C125.184 207.331 130.56 203.405 135.168 198.456C139.947 193.507 143.787 187.789 146.688 181.304L179.2 193.08C174.933 203.491 168.789 212.707 160.768 220.728C152.917 228.749 143.701 234.979 133.12 239.416C122.539 243.853 111.019 246.072 98.56 246.072ZM327.836 246.072C309.745 246.072 293.703 242.147 279.708 234.296C265.884 226.275 255.047 215.352 247.196 201.528C239.345 187.533 235.42 171.576 235.42 153.656C235.42 135.395 239.345 119.352 247.196 105.528C255.047 91.5333 265.799 80.6107 279.452 72.76C293.276 64.9093 309.148 60.984 327.068 60.984C345.159 60.984 361.031 64.9947 374.684 73.016C388.508 80.8667 399.345 91.7893 407.196 105.784C415.047 119.608 418.972 135.565 418.972 153.656C418.972 171.576 415.047 187.533 407.196 201.528C399.516 215.352 388.764 226.275 374.94 234.296C361.287 242.147 345.585 246.072 327.836 246.072ZM327.836 214.072C338.759 214.072 348.316 211.512 356.508 206.392C364.871 201.101 371.356 193.933 375.964 184.888C380.743 175.843 383.132 165.432 383.132 153.656C383.132 141.709 380.743 131.213 375.964 122.168C371.185 113.123 364.615 106.04 356.252 100.92C347.889 95.6293 338.161 92.984 327.068 92.984C316.316 92.984 306.673 95.6293 298.14 100.92C289.777 106.04 283.207 113.123 278.428 122.168C273.649 131.213 271.26 141.709 271.26 153.656C271.26 165.432 273.649 175.843 278.428 184.888C283.207 193.933 289.863 201.101 298.396 206.392C306.929 211.512 316.743 214.072 327.836 214.072ZM488.376 243V63.8H526.52L578.744 141.112L630.968 63.8H668.856V243H634.04V118.584L578.744 199.992L523.448 118.84V243H488.376ZM818.98 246.584C804.132 246.584 791.247 243.683 780.324 237.88C769.401 232.077 760.953 223.971 754.98 213.56C749.177 202.979 746.276 190.52 746.276 176.184V63.8H781.348V176.184C781.348 183.864 782.884 190.605 785.956 196.408C789.199 202.04 793.636 206.392 799.268 209.464C805.071 212.536 811.812 214.072 819.492 214.072C827.172 214.072 833.828 212.536 839.46 209.464C845.263 206.392 849.7 202.04 852.772 196.408C856.015 190.605 857.636 183.864 857.636 176.184V63.8H892.708V176.184C892.708 190.52 889.636 202.979 883.492 213.56C877.519 223.971 868.985 232.077 857.892 237.88C846.969 243.683 833.999 246.584 818.98 246.584ZM970.046 243V63.8H1006.65L1094.21 184.12V63.8H1129.02V243H1094.21L1005.12 120.376V243H970.046ZM1209.01 243V63.8H1244.08V243H1209.01ZM1323.97 243V63.8H1381.31C1399.57 63.8 1415.7 67.64 1429.69 75.32C1443.86 83 1454.87 93.5813 1462.72 107.064C1470.74 120.376 1474.75 135.821 1474.75 153.4C1474.75 170.808 1470.74 186.253 1462.72 199.736C1454.87 213.219 1443.86 223.8 1429.69 231.48C1415.7 239.16 1399.57 243 1381.31 243H1323.97ZM1359.04 210.232H1381.31C1389.5 210.232 1397.1 208.781 1404.09 205.88C1411.09 202.979 1417.15 198.968 1422.27 193.848C1427.56 188.728 1431.66 182.755 1434.56 175.928C1437.46 168.931 1438.91 161.421 1438.91 153.4C1438.91 145.379 1437.46 137.955 1434.56 131.128C1431.66 124.131 1427.56 118.072 1422.27 112.952C1417.15 107.832 1411.09 103.821 1404.09 100.92C1397.1 98.0187 1389.5 96.568 1381.31 96.568H1359.04V210.232ZM1668.34 243L1599.73 63.8H1634.8L1705.46 243H1668.34ZM1526.77 243L1597.42 63.8H1632.5L1563.89 243H1526.77ZM1560.05 203.576V172.6H1672.43V203.576H1560.05ZM1767.89 243V63.8H1825.23C1843.49 63.8 1859.62 67.64 1873.61 75.32C1887.78 83 1898.79 93.5813 1906.64 107.064C1914.66 120.376 1918.67 135.821 1918.67 153.4C1918.67 170.808 1914.66 186.253 1906.64 199.736C1898.79 213.219 1887.78 223.8 1873.61 231.48C1859.62 239.16 1843.49 243 1825.23 243H1767.89ZM1802.96 210.232H1825.23C1833.42 210.232 1841.02 208.781 1848.01 205.88C1855.01 202.979 1861.07 198.968 1866.19 193.848C1871.48 188.728 1875.58 182.755 1878.48 175.928C1881.38 168.931 1882.83 161.421 1882.83 153.4C1882.83 145.379 1881.38 137.955 1878.48 131.128C1875.58 124.131 1871.48 118.072 1866.19 112.952C1861.07 107.832 1855.01 103.821 1848.01 100.92C1841.02 98.0187 1833.42 96.568 1825.23 96.568H1802.96V210.232ZM1988.1 243V63.8H2101.5V95.8H2023.17V136.504H2090.75V167.736H2023.17V211H2102.53V243H1988.1Z" fill="#0C0C0C"/>
</svg>
